<svg width="23" height="29" viewBox="0 0 23 29" fill="none" xmlns="http://www.w3.org/2000/svg">
<path d="M18.5373 20.9322H9.09431C8.0706 20.9322 7.23797 20.0996 7.23797 19.0759V14.172H18.5373C20.5326 14.172 22.1563 12.5489 22.1563 10.5536C22.1563 8.55826 20.5326 6.93521 18.5373 6.93521H7.23797V3.61838C7.23797 1.62306 5.6143 0 3.61899 0C1.62367 0 0 1.62305 0 3.61838V19.0759C0 24.0902 4.07998 28.169 9.09433 28.169H18.5373C20.5326 28.169 22.1563 26.5459 22.1563 24.5506C22.1563 22.5553 20.5326 20.9322 18.5373 20.9322ZM2.32475 15.9551V15.0654C2.32475 14.8197 2.52391 14.6212 2.76961 14.6212C3.0153 14.6212 3.21446 14.8197 3.21446 15.0654V15.9551C3.21446 16.2008 3.0153 16.3993 2.76961 16.3993C2.52391 16.3993 2.32475 16.2008 2.32475 15.9551ZM3.21446 13.0142C3.21446 13.2599 3.0153 13.4585 2.76961 13.4585C2.52391 13.4585 2.32475 13.2599 2.32475 13.0142V7.59661C2.32475 7.35092 2.52391 7.15238 2.76961 7.15238C3.0153 7.15238 3.21446 7.35092 3.21446 7.59661V13.0142Z" fill="white" fill-opacity="0.61"/>
</svg>
