<svg width="45" height="24" viewBox="0 0 45 24" fill="none" xmlns="http://www.w3.org/2000/svg">
<path fill-rule="evenodd" clip-rule="evenodd" d="M22.5 0C21.3954 0 20.5 0.89544 20.5 2V16V22C20.5 23.1046 21.3954 24 22.5 24H35.5C40.4706 24 44.5 19.9706 44.5 15C44.5 10.0294 40.4706 6 35.5 6C35.2172 6 34.9372 6.0131 34.6604 6.03878C32.1976 2.34082 27.5848 0 22.5 0Z" fill="white" fill-opacity="0.61"/>
<path fill-rule="evenodd" clip-rule="evenodd" d="M19.5 0V24H15.5V0H19.5Z" fill="white" fill-opacity="0.61"/>
<path fill-rule="evenodd" clip-rule="evenodd" d="M14.5 8V24H10.5V8H14.5Z" fill="white" fill-opacity="0.61"/>
<path fill-rule="evenodd" clip-rule="evenodd" d="M9.5 4V24H5.5V4H9.5Z" fill="white" fill-opacity="0.61"/>
<path fill-rule="evenodd" clip-rule="evenodd" d="M4.5 14V24H0.5V14H4.5Z" fill="white" fill-opacity="0.61"/>
</svg>
