<svg width="52" height="44" viewBox="0 0 52 44" fill="none" xmlns="http://www.w3.org/2000/svg">
<path d="M51.625 15.1652V29.9152C51.6256 30.2439 51.5383 30.5668 51.3722 30.8505C51.2061 31.1341 50.9671 31.3682 50.6801 31.5285L29.0391 43.8124C28.8983 43.8937 28.7386 43.9363 28.576 43.936C28.4135 43.9356 28.254 43.8923 28.1136 43.8104C27.9732 43.7285 27.857 43.6109 27.7766 43.4696C27.6963 43.3283 27.6548 43.1683 27.6563 43.0058V29.846L40.5164 22.5402L47.9375 26.7578V18.3226L40.5164 22.5402L36.7828 20.4199L46.0477 15.1652L27.6563 4.72494V15.2343L36.7828 20.4199L25.8125 26.6425L14.8422 20.4199L23.9688 15.2343V4.72494L5.57735 15.1652L14.8422 20.4199L11.1086 22.5402L3.6875 18.3226V26.7578L11.1086 22.5402L23.9688 29.846V43.0058C23.9702 43.1683 23.9287 43.3283 23.8484 43.4696C23.7681 43.6109 23.6518 43.7285 23.5114 43.8104C23.371 43.8923 23.2115 43.9356 23.049 43.936C22.8864 43.9363 22.7267 43.8937 22.5859 43.8124L0.944925 31.5285C0.657905 31.3682 0.418949 31.1341 0.252809 30.8505C0.0866685 30.5668 -0.000613458 30.2439 3.24552e-06 29.9152V15.1652C-0.000613458 14.8365 0.0866685 14.5135 0.252809 14.2299C0.418949 13.9462 0.657905 13.7122 0.944925 13.5519L23.9918 0.484318C24.5461 0.166957 25.1738 0 25.8125 0C26.4512 0 27.0789 0.166957 27.6332 0.484318L50.6801 13.5519C50.9671 13.7122 51.2061 13.9462 51.3722 14.2299C51.5383 14.5135 51.6256 14.8365 51.625 15.1652Z" fill="white" fill-opacity="0.61"/>
</svg>
