<svg width="40" height="29" viewBox="0 0 40 29" fill="none" xmlns="http://www.w3.org/2000/svg">
<path fill-rule="evenodd" clip-rule="evenodd" d="M29.5625 0.721521V12.5417C29.5625 13.2881 30.0253 13.9564 30.724 14.2188C31.4228 14.4813 32.2109 14.2832 32.7026 13.7215L38.9734 6.55481L39.0014 6.52199L39.4167 6.02367V18.8125C39.4167 19.5175 39.0032 20.157 38.3603 20.4463L20.4436 28.5088C19.976 28.7193 19.4407 28.7193 18.973 28.5088L1.05644 20.4463C0.413481 20.157 0 19.5175 0 18.8125V5.375C0 4.73204 0.34452 4.13839 0.902749 3.8194L7.17358 0.236069C7.71044 -0.0707 8.36751 -0.0789953 8.91193 0.214157L19.7083 6.0276L29.5625 0.721521ZM33.1458 0.751926V7.77323L36.2624 4.21142L37.2101 3.0743L33.1458 0.751926Z" fill="white" fill-opacity="0.61"/>
</svg>
