<svg width="39" height="36" viewBox="0 0 39 36" fill="none" xmlns="http://www.w3.org/2000/svg">
<path d="M37.9545 0.0186042C37.8862 0.00803014 37.8172 0.00185648 37.7481 0.000122143H1.26745C0.569527 -0.00952068 0.0105364 0.552977 0.000786533 1.26574C-0.00235483 1.34122 0.00392151 1.41679 0.0194737 1.49074L5.32501 34.5375C5.39137 34.9376 5.59166 35.3041 5.89375 35.5781C6.19261 35.8488 6.58294 35.9993 6.98817 36H32.4336C32.7383 36.0005 33.0328 35.8913 33.2621 35.6929C33.4914 35.4945 33.6399 35.2203 33.68 34.9216L36.8389 15.0003H25.1221L23.6222 24.0003H15.3738L13.2833 12.1075H37.2988L38.9855 1.50038C39.0887 0.797262 38.6296 0.131104 37.9545 0.0186042Z" fill="white" fill-opacity="0.61"/>
</svg>
