<svg width="33" height="33" viewBox="0 0 33 33" fill="none" xmlns="http://www.w3.org/2000/svg">
<path d="M29.1667 0H16.0417C15.8483 0 15.6628 0.0768227 15.5261 0.213568C15.3893 0.350313 15.3125 0.53578 15.3125 0.729167V15.3125H0.729167C0.53578 15.3125 0.350313 15.3893 0.213568 15.5261C0.0768227 15.6628 0 15.8483 0 16.0417V29.1667C0 29.9402 0.307291 30.6821 0.854272 31.2291C1.40125 31.776 2.14312 32.0833 2.91667 32.0833H16.0417C16.2351 32.0833 16.4205 32.0065 16.5573 31.8698C16.694 31.733 16.7708 31.5476 16.7708 31.3542V16.7708H31.3542C31.5476 16.7708 31.733 16.694 31.8698 16.5573C32.0065 16.4205 32.0833 16.2351 32.0833 16.0417V2.91667C32.0833 2.14312 31.776 1.40125 31.2291 0.854272C30.6821 0.307291 29.9402 0 29.1667 0Z" fill="white" fill-opacity="0.61"/>
</svg>
