<svg width="49" height="29" viewBox="0 0 49 29" fill="none" xmlns="http://www.w3.org/2000/svg">
<path fill-rule="evenodd" clip-rule="evenodd" d="M47.8465 2.01389C48.2099 0.878056 47.8465 0.0523608 46.2387 0.0523608H40.8926C39.5441 0.0523608 38.9214 0.775347 38.5579 1.54868C38.5579 1.54868 35.8078 8.15424 31.9674 12.4368C30.722 13.6753 30.1514 14.0882 29.4766 14.0882C29.1132 14.0882 28.6456 13.6753 28.6456 12.5405V1.96052C28.6456 0.619271 28.2312 0 27.0889 0H18.6813C17.8503 0 17.3317 0.619271 17.3317 1.23854C17.3317 2.52844 19.2519 2.83858 19.4592 6.45049V14.2986C19.4592 16.0014 19.1529 16.3125 18.473 16.3125C16.657 16.3125 12.2459 9.65559 9.59993 2.07028C9.08543 0.567916 8.56276 0 7.21322 0H1.81606C0.259292 0 0 0.721979 0 1.49632C0 2.88993 1.81606 9.90733 8.45864 19.1954C12.8697 25.5391 19.1488 28.9486 24.8053 28.9486C28.2312 28.9486 28.6456 28.1743 28.6456 26.8844V22.0853C28.6456 20.5376 28.957 20.2799 30.0472 20.2799C30.8251 20.2799 32.2267 20.6917 35.3923 23.7367C39.0245 27.3486 39.6472 29 41.6715 29H47.0166C48.5734 29 49.3002 28.2257 48.8847 26.7293C48.4182 25.233 46.6532 23.0661 44.3696 20.4863C43.1241 19.0423 41.256 17.4423 40.6854 16.668C39.9075 15.6358 40.1147 15.223 40.6854 14.2946C40.6333 14.2946 47.1728 5.10924 47.8465 2.00986" fill="white" fill-opacity="0.61"/>
</svg>
