<svg width="51" height="29" viewBox="0 0 51 29" fill="none" xmlns="http://www.w3.org/2000/svg">
<path d="M22.4931 25.2391L20.6222 20.156C20.6222 20.156 17.5841 23.5458 13.0301 23.5458C8.99911 23.5458 6.13534 20.0376 6.13534 14.4292C6.13534 7.24489 9.75544 4.67218 13.3197 4.67218C18.4602 4.67218 20.096 8.00441 21.4998 12.269L23.3675 18.1109C25.2383 23.7762 28.7417 28.3333 38.8489 28.3333C46.094 28.3333 50.9998 26.1139 50.9998 20.2743C50.9998 15.5421 48.3134 13.0861 43.2892 11.9173L39.5508 11.1002C36.9796 10.5166 36.2201 9.46598 36.2201 7.71036C36.2201 5.72594 37.7967 4.55554 40.3694 4.55554C43.1709 4.55554 44.6897 5.6092 44.9249 8.11966L50.7663 7.4193C50.2992 2.16013 46.679 5.47817e-09 40.7196 5.47817e-09C35.4605 5.47817e-09 30.3213 1.98442 30.3213 8.35314C30.3213 12.3267 32.2483 14.8386 37.0978 16.0067L41.0697 16.9406C44.0489 17.6409 45.0417 18.8705 45.0417 20.5639C45.0417 22.7242 42.9374 23.6019 38.9657 23.6019C33.0669 23.6019 30.6126 20.5047 29.2102 16.2402L27.2831 10.3998C24.8303 2.8046 20.9144 5.47817e-09 13.1449 5.47817e-09C4.55723 -0.000199213 0 5.43319 0 14.6644C0 23.5458 4.55723 28.3333 12.7374 28.3333C19.3366 28.3333 22.4931 25.2391 22.4931 25.2391Z" fill="white" fill-opacity="0.61"/>
</svg>
