<svg width="129" height="121" viewBox="0 0 129 121" fill="none" xmlns="http://www.w3.org/2000/svg">
<path d="M64.2 101.6C92.2 101.6 114.9 78.9 114.9 50.8C114.9 22.7 92.2 0 64.2 0C36.2 0 13.5 22.7 13.5 50.8C13.5 78.9 36.2 101.6 64.2 101.6Z" fill="#EAEEF9"/>
<path d="M97.5973 19.0273V23.1466H97.2805H93.2668L31.689 22.9353C30.5271 22.9353 29.3653 22.7241 28.2035 22.4072C28.0978 22.4072 27.9922 22.3016 27.8866 22.3016C26.4079 21.7735 25.1404 21.1397 24.0842 20.0835C23.2392 19.2385 22.6055 17.9711 22.6055 16.8092C22.6055 14.5912 24.401 12.9012 26.936 11.845C27.781 11.4225 28.8372 11.2112 29.8934 11.1056C30.3159 11.1056 30.7384 11 31.1609 11H89.57C90.2038 11 90.7319 11.1056 91.26 11.2112C91.6825 11.3169 92.105 11.4225 92.5275 11.6337C95.5905 12.9012 97.5973 15.6474 97.5973 19.0273Z" fill="url(#paint0_linear_167_21864)"/>
<path opacity="0.1" d="M97.2813 23.1465H93.2676L31.6898 22.9352C30.5279 22.9352 29.3661 22.724 28.2042 22.4071C28.0986 22.4071 27.993 22.3015 27.8874 22.3015C26.4087 21.7734 25.1412 21.1397 24.085 20.0834C24.8243 19.3441 25.7749 18.7103 26.9368 18.2879C27.7817 17.8654 28.838 17.6541 29.8942 17.5485C30.3167 17.4429 30.7392 17.4429 31.1617 17.4429H89.5708C90.2046 17.4429 90.7327 17.5485 91.2608 17.6541C91.6833 17.7597 92.1058 17.8654 92.5283 18.0766C94.8519 19.0272 96.5419 20.9284 97.2813 23.1465Z" fill="#020305"/>
<g filter="url(#filter0_d_167_21864)">
<path d="M105.097 29.5896V81.4501C105.097 85.0413 102.245 87.8931 98.6537 87.8931H36.4422C31.2667 87.8931 27.253 85.4638 24.7181 83.457C23.5562 82.5064 22.8169 81.0277 22.8169 79.5489C22.8169 78.8096 22.8169 78.0702 22.8169 77.3309C22.8169 76.2747 22.8169 75.0072 22.8169 73.7397C22.8169 67.8249 22.8169 59.9032 22.7112 51.8759C22.7112 50.714 22.7112 49.5522 22.7112 48.2847C22.7112 44.0598 22.7112 39.8349 22.6056 35.8213C22.6056 34.6594 22.6056 33.4976 22.6056 32.2301C22.6056 24.3085 22.5 18.3936 22.5 17.0205C22.5 19.3442 24.7181 21.4566 27.6755 22.3016C27.7811 22.3016 27.8867 22.4072 27.9924 22.4072C29.0486 22.7241 30.3161 22.9354 31.4779 22.9354L93.0557 23.2522H97.4919H98.5481C102.245 23.1466 105.097 25.9984 105.097 29.5896Z" fill="url(#paint1_linear_167_21864)"/>
</g>
<path opacity="0.1" d="M92.6334 47.2285C90.4154 47.2285 88.5142 48.0735 87.1411 49.4466C85.768 50.8197 84.8174 52.8265 84.8174 54.9389C84.8174 55.0446 84.8174 55.2558 84.8174 55.3614C85.0286 59.4807 88.5142 62.755 92.6334 62.755H105.097V47.2285H92.6334Z" fill="url(#paint2_linear_167_21864)"/>
<g filter="url(#filter1_d_167_21864)">
<path d="M105.097 44.2712V46.1724C104.991 46.1724 104.886 46.1724 104.674 46.1724H91.9997C89.7816 46.1724 87.8804 47.0174 86.5073 48.3905C85.2398 49.658 84.2892 51.5592 84.1836 53.566C84.1836 53.6716 84.1836 53.8829 84.1836 53.9885C84.1836 58.319 87.6691 61.8046 91.9997 61.8046H104.674C105.308 61.8046 105.836 61.5933 106.047 61.2764C106.153 61.1708 106.259 60.9596 106.259 60.854V45.2218C106.259 44.6937 105.731 44.3769 105.097 44.2712Z" fill="url(#paint3_linear_167_21864)"/>
</g>
<path d="M91.3661 58.6356C93.9011 58.6356 96.0135 56.5231 96.0135 53.9882C96.0135 51.4533 93.9011 49.3408 91.3661 49.3408C88.8312 49.3408 86.7188 51.4533 86.7188 53.9882C86.7188 56.5231 88.8312 58.6356 91.3661 58.6356Z" fill="#DADFEC"/>
<path d="M116.9 29.9002C119.164 29.9002 121 28.0646 121 25.8002C121 23.5358 119.164 21.7002 116.9 21.7002C114.635 21.7002 112.8 23.5358 112.8 25.8002C112.8 28.0646 114.635 29.9002 116.9 29.9002Z" fill="#EAEEF9"/>
<path d="M122.9 13.8C124.446 13.8 125.7 12.5463 125.7 11C125.7 9.45355 124.446 8.19995 122.9 8.19995C121.353 8.19995 120.1 9.45355 120.1 11C120.1 12.5463 121.353 13.8 122.9 13.8Z" fill="#EAEEF9"/>
<path d="M6.3 32.8002C7.8464 32.8002 9.1 31.5466 9.1 30.0002C9.1 28.4538 7.8464 27.2002 6.3 27.2002C4.7536 27.2002 3.5 28.4538 3.5 30.0002C3.5 31.5466 4.7536 32.8002 6.3 32.8002Z" fill="#EAEEF9"/>
<path d="M11.4998 93.6998C14.3717 93.6998 16.6998 91.3717 16.6998 88.4998C16.6998 85.6279 14.3717 83.2998 11.4998 83.2998C8.62792 83.2998 6.2998 85.6279 6.2998 88.4998C6.2998 91.3717 8.62792 93.6998 11.4998 93.6998Z" fill="#EAEEF9"/>
<path d="M43.2134 88.6426C42.8134 90.3426 42.2134 92.1426 41.5134 93.6426C39.6134 97.3426 36.6134 100.243 32.9134 102.143C29.1134 104.043 24.6134 104.843 20.1134 103.843C9.51337 101.643 2.71337 91.2426 4.91337 80.6426C7.11337 70.0426 17.4134 63.1426 28.0134 65.4426C31.8134 66.2426 35.1134 68.1426 37.9134 70.7426C42.6134 75.4426 44.6134 82.2426 43.2134 88.6426Z" fill="url(#paint4_linear_167_21864)"/>
<path d="M30.3129 82.9427H25.8129V78.4427C25.8129 77.5427 25.1129 76.7427 24.1129 76.7427C23.2129 76.7427 22.4129 77.4427 22.4129 78.4427V82.9427H17.9129C17.0129 82.9427 16.2129 83.6427 16.2129 84.6427C16.2129 85.6427 16.9129 86.3427 17.9129 86.3427H22.4129V90.8427C22.4129 91.7427 23.1129 92.5427 24.1129 92.5427C25.0129 92.5427 25.8129 91.8427 25.8129 90.8427V86.3427H30.3129C31.2129 86.3427 32.0129 85.6427 32.0129 84.6427C32.0129 83.6427 31.2129 82.9427 30.3129 82.9427Z" fill="white"/>
<defs>
<filter id="filter0_d_167_21864" x="0.5" y="6.02051" width="126.597" height="114.873" filterUnits="userSpaceOnUse" color-interpolation-filters="sRGB">
<feFlood flood-opacity="0" result="BackgroundImageFix"/>
<feColorMatrix in="SourceAlpha" type="matrix" values="0 0 0 0 0 0 0 0 0 0 0 0 0 0 0 0 0 0 127 0" result="hardAlpha"/>
<feOffset dy="11"/>
<feGaussianBlur stdDeviation="11"/>
<feColorMatrix type="matrix" values="0 0 0 0 0.397708 0 0 0 0 0.47749 0 0 0 0 0.575 0 0 0 0.27 0"/>
<feBlend mode="normal" in2="BackgroundImageFix" result="effect1_dropShadow_167_21864"/>
<feBlend mode="normal" in="SourceGraphic" in2="effect1_dropShadow_167_21864" result="shape"/>
</filter>
<filter id="filter1_d_167_21864" x="62.1836" y="33.2712" width="66.0752" height="61.5334" filterUnits="userSpaceOnUse" color-interpolation-filters="sRGB">
<feFlood flood-opacity="0" result="BackgroundImageFix"/>
<feColorMatrix in="SourceAlpha" type="matrix" values="0 0 0 0 0 0 0 0 0 0 0 0 0 0 0 0 0 0 127 0" result="hardAlpha"/>
<feOffset dy="11"/>
<feGaussianBlur stdDeviation="11"/>
<feColorMatrix type="matrix" values="0 0 0 0 0.397708 0 0 0 0 0.47749 0 0 0 0 0.575 0 0 0 0.27 0"/>
<feBlend mode="normal" in2="BackgroundImageFix" result="effect1_dropShadow_167_21864"/>
<feBlend mode="normal" in="SourceGraphic" in2="effect1_dropShadow_167_21864" result="shape"/>
</filter>
<linearGradient id="paint0_linear_167_21864" x1="60.1073" y1="11.422" x2="60.1073" y2="18.2397" gradientUnits="userSpaceOnUse">
<stop stop-color="#B0BACC"/>
<stop offset="1" stop-color="#969EAE"/>
</linearGradient>
<linearGradient id="paint1_linear_167_21864" x1="63.7714" y1="15.3812" x2="63.7714" y2="88.6572" gradientUnits="userSpaceOnUse">
<stop stop-color="#FDFEFF"/>
<stop offset="0.9964" stop-color="#ECF0F5"/>
</linearGradient>
<linearGradient id="paint2_linear_167_21864" x1="94.9587" y1="47.7679" x2="94.9587" y2="56.4827" gradientUnits="userSpaceOnUse">
<stop stop-color="#B0BACC"/>
<stop offset="1" stop-color="#969EAE"/>
</linearGradient>
<linearGradient id="paint3_linear_167_21864" x1="95.2139" y1="43.8657" x2="95.2139" y2="61.9936" gradientUnits="userSpaceOnUse">
<stop stop-color="#FDFEFF"/>
<stop offset="0.9964" stop-color="#ECF0F5"/>
</linearGradient>
<linearGradient id="paint4_linear_167_21864" x1="4.48207" y1="84.6421" x2="43.6592" y2="84.6421" gradientUnits="userSpaceOnUse">
<stop stop-color="#B0BACC"/>
<stop offset="1" stop-color="#969EAE"/>
</linearGradient>
</defs>
</svg>
