<svg width="1836" height="449" viewBox="0 0 1836 449" fill="none" xmlns="http://www.w3.org/2000/svg">
<rect y="27" width="434" height="422" rx="211" fill="#FF5800"/>
<mask id="path-2-outside-1_2238_13377" maskUnits="userSpaceOnUse" x="74" y="83" width="298" height="303" fill="black">
<rect fill="white" x="74" y="83" width="298" height="303"/>
<path d="M184.945 210.281L158.773 313.992C165.023 314.904 170.036 315.359 173.812 315.359C179.542 315.359 186.638 314.383 195.102 312.43L193.148 322C184.424 323.823 177.654 324.734 172.836 324.734C167.758 324.734 160.271 324.279 150.375 323.367C141.651 322.456 134.424 322 128.695 322C118.279 322 106.234 323.497 92.5625 326.492L95.4922 315.555C109.815 311.909 119.125 308.328 123.422 304.812C129.932 299.214 134.945 289.383 138.461 275.32L165.805 166.141C169.19 152.208 170.883 144.005 170.883 141.531C170.883 139.188 170.036 137.43 168.344 136.258C166.781 135.086 163.591 134.565 158.773 134.695L161.312 125.32C174.464 125.19 190.219 122.781 208.578 118.094C207.016 123.042 204.997 130.333 202.523 139.969L187.875 197.586C194.125 198.888 199.398 199.539 203.695 199.539C219.971 199.539 233.904 193.875 245.492 182.547C257.081 171.089 262.875 157.547 262.875 141.922C262.875 129.812 258.188 119.852 248.812 112.039C239.568 104.227 226.938 100.32 210.922 100.32C190.479 100.32 170.492 105.268 150.961 115.164C131.43 125.06 116.781 137.365 107.016 152.078C97.25 166.661 92.3672 181.961 92.3672 197.977C92.3672 210.086 97.3802 220.503 107.406 229.227C112.484 233.523 115.609 236.648 116.781 238.602C117.953 240.555 118.539 242.638 118.539 244.852C118.539 247.586 117.497 249.995 115.414 252.078C113.461 254.031 111.052 255.008 108.188 255.008C101.156 255.008 94.9062 250.906 89.4375 242.703C82.4062 232.026 78.8906 218.875 78.8906 203.25C78.8906 183.198 84.4245 164.513 95.4922 147.195C106.56 129.878 123.292 115.555 145.688 104.227C168.214 92.8984 191.911 87.2344 216.781 87.2344C239.958 87.2344 259.034 91.5964 274.008 100.32C288.982 109.044 296.469 121.935 296.469 138.992C296.469 155.008 289.568 169.917 275.766 183.719C262.094 197.521 243.214 206.375 219.125 210.281C225.115 222.26 228.956 230.333 230.648 234.5C233.383 241.531 237.549 253.38 243.148 270.047C256.299 309.24 269.906 336.844 283.969 352.859C294.385 364.578 305.648 370.438 317.758 370.438C330.258 370.438 338.266 364.773 341.781 353.445C343.865 346.284 345.818 341.857 347.641 340.164C350.115 337.82 352.914 336.648 356.039 336.648C359.164 336.648 361.768 337.755 363.852 339.969C366.065 342.182 367.172 344.852 367.172 347.977C367.172 356.049 362.745 363.732 353.891 371.023C345.036 378.315 333.643 381.961 319.711 381.961C307.081 381.961 294.971 378.901 283.383 372.781C271.924 366.661 260.727 356.635 249.789 342.703C238.982 328.771 229.542 312.039 221.469 292.508C217.432 282.742 211.508 264.839 203.695 238.797C199.008 222.911 196.078 213.406 194.906 210.281L190.023 209.891C188.852 209.891 187.159 210.021 184.945 210.281Z"/>
</mask>
<path d="M184.945 210.281L158.773 313.992C165.023 314.904 170.036 315.359 173.812 315.359C179.542 315.359 186.638 314.383 195.102 312.43L193.148 322C184.424 323.823 177.654 324.734 172.836 324.734C167.758 324.734 160.271 324.279 150.375 323.367C141.651 322.456 134.424 322 128.695 322C118.279 322 106.234 323.497 92.5625 326.492L95.4922 315.555C109.815 311.909 119.125 308.328 123.422 304.812C129.932 299.214 134.945 289.383 138.461 275.32L165.805 166.141C169.19 152.208 170.883 144.005 170.883 141.531C170.883 139.188 170.036 137.43 168.344 136.258C166.781 135.086 163.591 134.565 158.773 134.695L161.312 125.32C174.464 125.19 190.219 122.781 208.578 118.094C207.016 123.042 204.997 130.333 202.523 139.969L187.875 197.586C194.125 198.888 199.398 199.539 203.695 199.539C219.971 199.539 233.904 193.875 245.492 182.547C257.081 171.089 262.875 157.547 262.875 141.922C262.875 129.812 258.188 119.852 248.812 112.039C239.568 104.227 226.938 100.32 210.922 100.32C190.479 100.32 170.492 105.268 150.961 115.164C131.43 125.06 116.781 137.365 107.016 152.078C97.25 166.661 92.3672 181.961 92.3672 197.977C92.3672 210.086 97.3802 220.503 107.406 229.227C112.484 233.523 115.609 236.648 116.781 238.602C117.953 240.555 118.539 242.638 118.539 244.852C118.539 247.586 117.497 249.995 115.414 252.078C113.461 254.031 111.052 255.008 108.188 255.008C101.156 255.008 94.9062 250.906 89.4375 242.703C82.4062 232.026 78.8906 218.875 78.8906 203.25C78.8906 183.198 84.4245 164.513 95.4922 147.195C106.56 129.878 123.292 115.555 145.688 104.227C168.214 92.8984 191.911 87.2344 216.781 87.2344C239.958 87.2344 259.034 91.5964 274.008 100.32C288.982 109.044 296.469 121.935 296.469 138.992C296.469 155.008 289.568 169.917 275.766 183.719C262.094 197.521 243.214 206.375 219.125 210.281C225.115 222.26 228.956 230.333 230.648 234.5C233.383 241.531 237.549 253.38 243.148 270.047C256.299 309.24 269.906 336.844 283.969 352.859C294.385 364.578 305.648 370.438 317.758 370.438C330.258 370.438 338.266 364.773 341.781 353.445C343.865 346.284 345.818 341.857 347.641 340.164C350.115 337.82 352.914 336.648 356.039 336.648C359.164 336.648 361.768 337.755 363.852 339.969C366.065 342.182 367.172 344.852 367.172 347.977C367.172 356.049 362.745 363.732 353.891 371.023C345.036 378.315 333.643 381.961 319.711 381.961C307.081 381.961 294.971 378.901 283.383 372.781C271.924 366.661 260.727 356.635 249.789 342.703C238.982 328.771 229.542 312.039 221.469 292.508C217.432 282.742 211.508 264.839 203.695 238.797C199.008 222.911 196.078 213.406 194.906 210.281L190.023 209.891C188.852 209.891 187.159 210.021 184.945 210.281Z" fill="white"/>
<path d="M184.945 210.281L184.478 206.309L181.741 206.631L181.067 209.303L184.945 210.281ZM158.773 313.992L154.895 313.013L153.811 317.311L158.196 317.95L158.773 313.992ZM195.102 312.43L199.021 313.23L200.265 307.133L194.202 308.532L195.102 312.43ZM193.148 322L193.967 325.915L196.542 325.377L197.068 322.8L193.148 322ZM150.375 323.367L149.959 327.346L149.984 327.348L150.008 327.35L150.375 323.367ZM92.5625 326.492L88.6987 325.457L86.9982 331.806L93.4184 330.4L92.5625 326.492ZM95.4922 315.555L94.5055 311.678L92.2347 312.256L91.6284 314.52L95.4922 315.555ZM123.422 304.812L125.955 307.908L125.993 307.877L126.03 307.845L123.422 304.812ZM138.461 275.32L134.581 274.349L134.58 274.35L138.461 275.32ZM165.805 166.141L169.685 167.112L169.688 167.099L169.692 167.085L165.805 166.141ZM168.344 136.258L165.944 139.458L166.004 139.503L166.067 139.547L168.344 136.258ZM158.773 134.695L154.913 133.65L153.507 138.839L158.882 138.694L158.773 134.695ZM161.312 125.32L161.273 121.321L158.244 121.351L157.452 124.275L161.312 125.32ZM208.578 118.094L212.392 119.298L214.559 112.438L207.589 114.218L208.578 118.094ZM202.523 139.969L198.649 138.974L198.647 138.983L202.523 139.969ZM187.875 197.586L183.998 196.6L182.969 200.65L187.059 201.502L187.875 197.586ZM245.492 182.547L248.288 185.407L248.296 185.399L248.305 185.391L245.492 182.547ZM248.812 112.039L246.231 115.094L246.241 115.103L246.252 115.112L248.812 112.039ZM150.961 115.164L152.769 118.732L150.961 115.164ZM107.016 152.078L110.339 154.304L110.344 154.297L110.348 154.29L107.016 152.078ZM107.406 229.227L104.781 232.244L104.801 232.262L104.822 232.28L107.406 229.227ZM89.4375 242.703L86.0968 244.903L86.103 244.913L86.1093 244.922L89.4375 242.703ZM95.4922 147.195L92.1217 145.041L95.4922 147.195ZM145.688 104.227L143.89 100.653L143.882 100.657L145.688 104.227ZM275.766 183.719L272.937 180.89L272.93 180.897L272.924 180.904L275.766 183.719ZM219.125 210.281L218.485 206.333L213.114 207.204L215.547 212.07L219.125 210.281ZM230.648 234.5L234.376 233.05L234.366 233.022L234.354 232.994L230.648 234.5ZM243.148 270.047L246.941 268.774L246.94 268.773L243.148 270.047ZM283.969 352.859L280.963 355.499L280.971 355.508L280.979 355.517L283.969 352.859ZM341.781 353.445L345.602 354.631L345.612 354.597L345.622 354.563L341.781 353.445ZM347.641 340.164L350.362 343.095L350.377 343.082L350.392 343.068L347.641 340.164ZM363.852 339.969L360.939 342.71L360.98 342.754L361.023 342.797L363.852 339.969ZM283.383 372.781L281.498 376.31L281.507 376.314L281.515 376.318L283.383 372.781ZM249.789 342.703L246.628 345.155L246.636 345.164L246.643 345.173L249.789 342.703ZM221.469 292.508L217.772 294.036L221.469 292.508ZM203.695 238.797L199.859 239.929L199.861 239.938L199.864 239.946L203.695 238.797ZM194.906 210.281L198.652 208.877L197.759 206.497L195.225 206.294L194.906 210.281ZM190.023 209.891L190.342 205.903L190.183 205.891H190.023V209.891ZM181.067 209.303L154.895 313.013L162.652 314.971L188.824 211.26L181.067 209.303ZM158.196 317.95C164.529 318.874 169.758 319.359 173.812 319.359V311.359C170.315 311.359 165.518 310.934 159.351 310.034L158.196 317.95ZM173.812 319.359C179.957 319.359 187.377 318.317 196.001 316.327L194.202 308.532C185.899 310.448 179.126 311.359 173.812 311.359V319.359ZM191.182 311.63L189.229 321.2L197.068 322.8L199.021 313.23L191.182 311.63ZM192.33 318.085C183.69 319.89 177.238 320.734 172.836 320.734V328.734C178.069 328.734 185.159 327.756 193.967 325.915L192.33 318.085ZM172.836 320.734C167.947 320.734 160.608 320.293 150.742 319.384L150.008 327.35C159.934 328.265 167.569 328.734 172.836 328.734V320.734ZM150.791 319.389C141.993 318.47 134.616 318 128.695 318V326C134.233 326 141.309 326.442 149.959 327.346L150.791 319.389ZM128.695 318C117.912 318 105.57 319.548 91.7066 322.585L93.4184 330.4C106.898 327.447 118.645 326 128.695 326V318ZM96.4263 327.527L99.356 316.59L91.6284 314.52L88.6987 325.457L96.4263 327.527ZM96.4789 319.431C103.728 317.586 109.799 315.735 114.653 313.868C119.442 312.026 123.313 310.07 125.955 307.908L120.889 301.717C119.234 303.071 116.302 304.663 111.781 306.401C107.324 308.115 101.58 309.878 94.5055 311.678L96.4789 319.431ZM126.03 307.845C133.468 301.449 138.749 290.659 142.342 276.29L134.58 274.35C131.141 288.107 126.397 296.978 120.814 301.78L126.03 307.845ZM142.341 276.292L169.685 167.112L161.925 165.169L134.581 274.349L142.341 276.292ZM169.692 167.085C171.389 160.101 172.671 154.515 173.531 150.347C174.356 146.35 174.883 143.256 174.883 141.531H166.883C166.883 142.28 166.564 144.525 165.696 148.731C164.863 152.766 163.606 158.248 161.918 165.196L169.692 167.085ZM174.883 141.531C174.883 138.086 173.555 135 170.621 132.969L166.067 139.547C166.518 139.859 166.883 140.289 166.883 141.531H174.883ZM170.744 133.058C169.213 131.91 167.288 131.345 165.424 131.041C163.491 130.725 161.216 130.628 158.665 130.697L158.882 138.694C161.148 138.633 162.877 138.731 164.135 138.936C164.757 139.038 165.21 139.157 165.525 139.269C165.844 139.383 165.953 139.465 165.944 139.458L170.744 133.058ZM162.634 135.741L165.173 126.366L157.452 124.275L154.913 133.65L162.634 135.741ZM161.352 129.32C174.93 129.186 191.021 126.705 209.568 121.969L207.589 114.218C189.416 118.858 173.997 121.195 161.273 121.321L161.352 129.32ZM204.764 116.889C203.168 121.943 201.128 129.319 198.649 138.974L206.398 140.964C208.867 131.347 210.863 124.14 212.392 119.298L204.764 116.889ZM198.647 138.983L183.998 196.6L191.752 198.572L206.4 140.954L198.647 138.983ZM187.059 201.502C193.462 202.836 199.027 203.539 203.695 203.539V195.539C199.77 195.539 194.788 194.94 188.691 193.67L187.059 201.502ZM203.695 203.539C221.011 203.539 235.949 197.47 248.288 185.407L242.696 179.686C231.859 190.28 218.931 195.539 203.695 195.539V203.539ZM248.305 185.391C260.617 173.218 266.875 158.666 266.875 141.922H258.875C258.875 156.428 253.545 168.96 242.68 179.703L248.305 185.391ZM266.875 141.922C266.875 128.615 261.652 117.532 251.373 108.966L246.252 115.112C254.723 122.171 258.875 131.01 258.875 141.922H266.875ZM251.394 108.984C241.222 100.388 227.574 96.3203 210.922 96.3203V104.32C226.301 104.32 237.913 108.065 246.231 115.094L251.394 108.984ZM210.922 96.3203C189.807 96.3203 169.204 101.437 149.153 111.596L152.769 118.732C171.78 109.1 191.152 104.32 210.922 104.32V96.3203ZM149.153 111.596C129.151 121.73 113.913 134.453 103.683 149.866L110.348 154.29C119.65 140.276 133.708 128.39 152.769 118.732L149.153 111.596ZM103.692 149.852C93.5295 165.028 88.3672 181.093 88.3672 197.977H96.3672C96.3672 182.829 100.97 168.294 110.339 154.304L103.692 149.852ZM88.3672 197.977C88.3672 211.364 93.9772 222.844 104.781 232.244L110.032 226.209C100.783 218.161 96.3672 208.807 96.3672 197.977H88.3672ZM104.822 232.28C107.315 234.389 109.275 236.166 110.73 237.621C112.235 239.126 113.025 240.116 113.351 240.66L120.211 236.544C119.366 235.134 118.007 233.585 116.387 231.965C114.718 230.295 112.576 228.361 109.99 226.173L104.822 232.28ZM113.351 240.66C114.162 242.01 114.539 243.385 114.539 244.852H122.539C122.539 241.891 121.745 239.099 120.211 236.544L113.351 240.66ZM114.539 244.852C114.539 246.438 113.983 247.852 112.586 249.25L118.242 254.907C121.012 252.137 122.539 248.734 122.539 244.852H114.539ZM112.586 249.25C111.413 250.422 110.035 251.008 108.188 251.008V259.008C112.069 259.008 115.509 257.64 118.242 254.907L112.586 249.25ZM108.188 251.008C102.988 251.008 97.817 248.061 92.7657 240.484L86.1093 244.922C91.9955 253.751 99.3241 259.008 108.188 259.008V251.008ZM92.7782 240.503C86.2642 230.612 82.8906 218.268 82.8906 203.25H74.8906C74.8906 219.482 78.5483 233.441 86.0968 244.903L92.7782 240.503ZM82.8906 203.25C82.8906 183.981 88.1952 166.041 98.8627 149.349L92.1217 145.041C80.6538 162.985 74.8906 182.415 74.8906 203.25H82.8906ZM98.8627 149.349C109.468 132.755 125.595 118.872 147.493 107.796L143.882 100.657C120.988 112.237 103.652 127 92.1217 145.041L98.8627 149.349ZM147.485 107.8C169.461 96.7484 192.544 91.2344 216.781 91.2344V83.2344C191.278 83.2344 166.966 89.0485 143.89 100.653L147.485 107.8ZM216.781 91.2344C239.482 91.2344 257.804 95.5092 271.994 103.777L276.021 96.8641C260.264 87.6835 240.435 83.2344 216.781 83.2344V91.2344ZM271.994 103.777C285.763 111.798 292.469 123.386 292.469 138.992H300.469C300.469 120.484 292.201 106.29 276.021 96.8641L271.994 103.777ZM292.469 138.992C292.469 153.723 286.164 167.664 272.937 180.89L278.594 186.547C292.972 172.17 300.469 156.293 300.469 138.992H292.469ZM272.924 180.904C259.985 193.966 241.954 202.527 218.485 206.333L219.765 214.23C244.473 210.223 264.203 201.076 278.607 186.534L272.924 180.904ZM215.547 212.07C221.548 224.072 225.318 232.007 226.943 236.006L234.354 232.994C232.593 228.66 228.681 220.449 222.703 208.492L215.547 212.07ZM226.92 235.95C229.618 242.886 233.759 254.656 239.357 271.321L246.94 268.773C241.34 252.104 237.148 240.177 234.376 233.05L226.92 235.95ZM239.356 271.319C252.547 310.632 266.357 338.864 280.963 355.499L286.975 350.22C273.456 334.824 260.052 307.847 246.941 268.774L239.356 271.319ZM280.979 355.517C291.917 367.822 304.191 374.438 317.758 374.438V366.438C307.106 366.438 296.854 361.335 286.958 350.202L280.979 355.517ZM317.758 374.438C324.608 374.438 330.605 372.881 335.449 369.455C340.312 366.015 343.639 360.955 345.602 354.631L337.961 352.26C336.408 357.264 333.973 360.7 330.829 362.924C327.665 365.162 323.408 366.438 317.758 366.438V374.438ZM345.622 354.563C346.638 351.071 347.59 348.359 348.468 346.368C349.394 344.271 350.071 343.366 350.362 343.095L344.919 337.233C343.387 338.655 342.177 340.81 341.149 343.139C340.074 345.576 339.008 348.658 337.94 352.328L345.622 354.563ZM350.392 343.068C352.196 341.358 354.034 340.648 356.039 340.648V332.648C351.794 332.648 348.033 334.282 344.89 337.26L350.392 343.068ZM356.039 340.648C358.096 340.648 359.635 341.325 360.939 342.71L366.764 337.227C363.901 334.185 360.232 332.648 356.039 332.648V340.648ZM361.023 342.797C362.488 344.262 363.172 345.914 363.172 347.977H371.172C371.172 343.789 369.642 340.103 366.68 337.14L361.023 342.797ZM363.172 347.977C363.172 354.414 359.684 361.071 351.348 367.936L356.433 374.111C365.806 366.393 371.172 357.685 371.172 347.977H363.172ZM351.348 367.936C343.354 374.518 332.922 377.961 319.711 377.961V385.961C334.365 385.961 346.718 382.112 356.433 374.111L351.348 367.936ZM319.711 377.961C307.757 377.961 296.286 375.072 285.251 369.244L281.515 376.318C293.657 382.73 306.405 385.961 319.711 385.961V377.961ZM285.267 369.253C274.442 363.471 263.647 353.878 252.935 340.233L246.643 345.173C257.806 359.393 269.407 369.852 281.498 376.31L285.267 369.253ZM252.95 340.251C242.4 326.651 233.128 310.244 225.165 290.98L217.772 294.036C225.955 313.834 235.564 330.891 246.628 345.155L252.95 340.251ZM225.165 290.98C221.215 281.423 215.342 263.699 207.527 237.647L199.864 239.946C207.674 265.978 213.649 284.061 217.772 294.036L225.165 290.98ZM207.532 237.665C202.865 221.85 199.887 212.171 198.652 208.877L191.161 211.686C192.269 214.641 195.15 223.973 199.859 239.929L207.532 237.665ZM195.225 206.294L190.342 205.903L189.704 213.878L194.587 214.269L195.225 206.294ZM190.023 205.891C188.613 205.891 186.735 206.043 184.478 206.309L185.413 214.254C187.583 213.999 189.09 213.891 190.023 213.891V205.891Z" fill="white" mask="url(#path-2-outside-1_2238_13377)"/>
<mask id="path-4-outside-2_2238_13377" maskUnits="userSpaceOnUse" x="451" y="42" width="1390" height="385" fill="black">
<rect fill="white" x="451" y="42" width="1390" height="385"/>
<path d="M559.328 272.977L565.773 281.57C533.872 311.909 506.529 327.078 483.742 327.078C474.497 327.078 467.401 323.953 462.453 317.703C457.635 311.453 455.227 301.427 455.227 287.625C455.227 259.76 463.69 232.026 480.617 204.422C499.628 173.042 522.349 157.352 548.781 157.352C558.026 157.352 565.057 159.695 569.875 164.383C574.823 168.94 577.297 175.255 577.297 183.328C577.297 191.792 574.367 200.125 568.508 208.328C562.648 216.531 552.167 225.06 537.062 233.914C529.51 238.211 513.365 245.958 488.625 257.156C487.453 264.188 486.867 270.893 486.867 277.273C486.867 286.518 488.299 292.964 491.164 296.609C494.159 300.255 498.456 302.078 504.055 302.078C509.393 302.078 515.253 300.581 521.633 297.586C530.227 293.549 542.792 285.346 559.328 272.977ZM490.969 244.656C511.932 235.281 527.688 225.19 538.234 214.383C545.396 206.831 548.977 199.344 548.977 191.922C548.977 186.323 547.479 181.896 544.484 178.641C541.62 175.255 537.844 173.562 533.156 173.562C528.339 173.562 523.651 175.385 519.094 179.031C512.974 183.849 507.831 191.141 503.664 200.906C497.674 215.229 493.443 229.812 490.969 244.656ZM734.125 154.422L747.016 151.688L732.367 201.102C726.508 220.763 720.974 243.419 715.766 269.07C712.901 283.003 711.469 291.987 711.469 296.023C711.469 300.06 713.096 302.078 716.352 302.078C718.435 302.078 721.755 300.711 726.312 297.977C734.385 293.159 742.133 287.169 749.555 280.008L755.805 287.625C740.961 301.167 731.456 309.37 727.289 312.234C718.956 317.964 711.013 322.195 703.461 324.93C698.513 326.753 693.695 327.664 689.008 327.664C685.622 327.664 683.083 326.883 681.391 325.32C679.698 323.758 678.852 321.479 678.852 318.484C678.852 316.531 679.372 313.862 680.414 310.477L688.227 283.914C677.029 297.326 663.682 308.849 648.188 318.484C638.682 324.474 629.958 327.469 622.016 327.469C614.464 327.469 608.669 324.799 604.633 319.461C599.164 312.299 596.43 302.924 596.43 291.336C596.43 277.534 600.076 262.169 607.367 245.242C614.789 228.315 624.685 212.951 637.055 199.148C649.424 185.346 662.445 175.19 676.117 168.68C686.664 163.732 700.206 161.258 716.742 161.258C720.909 161.258 725.141 161.518 729.438 162.039L734.125 154.422ZM709.906 184.305C702.875 182.872 696.951 182.156 692.133 182.156C680.414 182.156 670.193 185.411 661.469 191.922C652.745 198.302 644.607 209.891 637.055 226.688C629.633 243.354 625.922 260.021 625.922 276.688C625.922 285.542 627.419 291.922 630.414 295.828C633.409 299.734 637.315 301.688 642.133 301.688C651.117 301.688 660.753 296.87 671.039 287.234C681.326 277.469 688.878 263.471 693.695 245.242L709.906 184.305ZM858.141 274.93L864.781 281.961C854.625 293.419 842.581 303.901 828.648 313.406C814.846 322.781 803.453 327.469 794.469 327.469C790.432 327.469 787.112 325.906 784.508 322.781C781.904 319.786 780.602 315.62 780.602 310.281C780.602 299.865 784.638 278.25 792.711 245.438L813.805 159.695C821.487 128.706 827.932 107.938 833.141 97.3906C841.214 81.375 852.607 68.9401 867.32 60.0859C882.164 51.2318 897.789 46.8047 914.195 46.8047C919.794 46.8047 924.156 48.1719 927.281 50.9062C930.536 53.5104 932.164 56.7005 932.164 60.4766C932.164 64.6432 930.602 68.0938 927.477 70.8281C924.352 73.4323 919.794 74.7344 913.805 74.7344C909.898 74.7344 904.365 74.0833 897.203 72.7812C890.953 71.7396 885.159 71.2188 879.82 71.2188C874.482 71.2188 870.445 72.3255 867.711 74.5391C863.935 77.6641 860.484 84.2396 857.359 94.2656C854.365 104.292 849.417 124.083 842.516 153.641L823.18 235.477C813.544 276.492 808.727 297.911 808.727 299.734C808.727 303.901 810.224 305.984 813.219 305.984C816.083 305.984 820.25 304.292 825.719 300.906C836.526 294.135 847.333 285.477 858.141 274.93ZM883.914 206.18L876.297 198.367C888.146 184.174 899.93 173.693 911.648 166.922C923.367 160.151 933.523 156.766 942.117 156.766C945.372 156.766 947.911 157.612 949.734 159.305C951.688 160.867 952.664 163.211 952.664 166.336C952.664 170.112 952.208 174.018 951.297 178.055C950.516 181.961 947.911 191.336 943.484 206.18C963.406 186.258 977.013 173.953 984.305 169.266C996.544 161.323 1007.74 157.352 1017.9 157.352C1024.54 157.352 1030.14 160.477 1034.7 166.727C1039.25 172.977 1041.53 182.417 1041.53 195.047C1041.53 226.557 1031.7 256.505 1012.04 284.891C992.378 313.276 970.633 327.469 946.805 327.469C937.43 327.469 928.055 324.93 918.68 319.852L902.078 384.305C901.036 388.211 900.516 391.401 900.516 393.875C900.516 398.693 902.339 402.143 905.984 404.227C911.583 407.482 923.367 410.151 941.336 412.234L938.797 422C917.833 420.307 901.362 419.461 889.383 419.461C877.013 419.461 860.997 420.307 841.336 422L843.875 412.234C853.771 411.193 860.932 408.458 865.359 404.031C869.917 399.604 873.562 391.727 876.297 380.398L911.648 232.156C918.289 204.552 921.609 189.188 921.609 186.062C921.609 182.677 919.982 180.984 916.727 180.984C910.997 180.984 900.06 189.383 883.914 206.18ZM923.367 298.367C933.654 308.654 944.201 313.797 955.008 313.797C970.633 313.797 984.305 301.622 996.023 277.273C1007.87 252.924 1013.8 229.161 1013.8 205.984C1013.8 198.562 1012.1 192.964 1008.72 189.188C1005.46 185.281 1001.04 183.328 995.438 183.328C989.188 183.328 982.156 186.388 974.344 192.508C962.234 202.013 952.99 211.453 946.609 220.828C942.052 227.599 937.755 239.318 933.719 255.984L923.367 298.367ZM1101.29 322H1072.19L1085.86 269.461C1092.5 243.68 1098.29 219.201 1103.24 196.023C1104.41 190.294 1105 186.714 1105 185.281C1105 182.156 1103.57 180.594 1100.7 180.594C1098.75 180.594 1095.76 181.961 1091.72 184.695C1087.68 187.299 1080.39 193.875 1069.84 204.422L1063.79 197.586C1076.29 184.174 1088.72 174.148 1101.09 167.508C1113.59 160.737 1123.16 157.352 1129.8 157.352C1132.15 157.352 1133.97 157.938 1135.27 159.109C1136.71 160.151 1137.42 161.518 1137.42 163.211C1137.42 164.904 1136.58 169.396 1134.88 176.688L1126.48 211.648C1139.64 190.945 1154.48 173.237 1171.02 158.523C1178.96 151.492 1185.6 147.977 1190.94 147.977C1194.84 147.977 1198.1 149.279 1200.7 151.883C1203.31 154.357 1204.61 157.286 1204.61 160.672C1204.61 164.188 1203.31 167.182 1200.7 169.656C1198.23 172.13 1191.91 175.06 1181.76 178.445C1172.12 181.701 1164.24 185.607 1158.12 190.164C1152.14 194.721 1145.49 201.688 1138.2 211.062C1131.04 220.438 1126.03 228.641 1123.16 235.672C1120.3 242.573 1115.94 258.719 1110.08 284.109L1101.29 322ZM1289.95 157.742C1302.71 157.742 1313.33 162.82 1321.79 172.977C1330.25 183.133 1334.48 197.26 1334.48 215.359C1334.48 244.266 1324.33 270.242 1304.02 293.289C1283.7 316.206 1262.22 327.664 1239.56 327.664C1225.63 327.664 1214.37 323.107 1205.77 313.992C1197.31 304.878 1193.08 292.443 1193.08 276.688C1193.08 249.344 1200.89 224.083 1216.52 200.906C1236.18 172.13 1260.66 157.742 1289.95 157.742ZM1273.35 172.391C1262.28 172.391 1251.54 180.333 1241.12 196.219C1230.84 211.974 1225.7 233.784 1225.7 261.648C1225.7 278.576 1228.89 291.922 1235.27 301.688C1239.95 308.849 1246.2 312.43 1254.02 312.43C1264.95 312.43 1274.91 305.659 1283.9 292.117C1295.36 274.539 1301.09 252.729 1301.09 226.688C1301.09 207.156 1298.42 193.224 1293.08 184.891C1287.87 176.557 1281.29 172.391 1273.35 172.391ZM1415.92 127.664L1446.98 115.75L1432.91 170.438H1473.34L1470.22 184.305H1429.79L1412.6 249.734C1407.26 269.396 1404.59 283.068 1404.59 290.75C1404.59 294.266 1405.31 296.805 1406.74 298.367C1408.3 299.93 1410.39 300.711 1412.99 300.711C1417.03 300.711 1423.21 298.302 1431.55 293.484C1442.48 287.104 1452.9 279.878 1462.8 271.805L1470.22 280.789C1441.7 302.273 1422.63 315.424 1412.99 320.242C1403.36 325.06 1395.61 327.469 1389.75 327.469C1384.93 327.469 1381.09 325.711 1378.23 322.195C1375.49 318.68 1374.12 312.951 1374.12 305.008C1374.12 295.633 1376.6 281.31 1381.55 262.039L1401.66 184.305H1370.02L1373.54 170.438H1404.98L1415.92 127.664ZM1594.23 157.742C1606.99 157.742 1617.61 162.82 1626.07 172.977C1634.53 183.133 1638.77 197.26 1638.77 215.359C1638.77 244.266 1628.61 270.242 1608.3 293.289C1587.98 316.206 1566.5 327.664 1543.84 327.664C1529.91 327.664 1518.65 323.107 1510.05 313.992C1501.59 304.878 1497.36 292.443 1497.36 276.688C1497.36 249.344 1505.17 224.083 1520.8 200.906C1540.46 172.13 1564.94 157.742 1594.23 157.742ZM1577.63 172.391C1566.57 172.391 1555.82 180.333 1545.41 196.219C1535.12 211.974 1529.98 233.784 1529.98 261.648C1529.98 278.576 1533.17 291.922 1539.55 301.688C1544.23 308.849 1550.48 312.43 1558.3 312.43C1569.23 312.43 1579.2 305.659 1588.18 292.117C1599.64 274.539 1605.37 252.729 1605.37 226.688C1605.37 207.156 1602.7 193.224 1597.36 184.891C1592.15 176.557 1585.58 172.391 1577.63 172.391ZM1671.38 203.445L1664.73 196.609C1681.4 180.724 1694.68 170.177 1704.58 164.969C1714.47 159.76 1722.94 157.156 1729.97 157.156C1732.7 157.156 1734.85 157.742 1736.41 158.914C1737.98 160.086 1738.76 161.453 1738.76 163.016C1738.76 164.188 1738.43 166.271 1737.78 169.266L1728.99 208.523C1742.27 193.81 1758.94 180.073 1778.99 167.312C1789.67 160.672 1798.46 157.352 1805.36 157.352C1810.44 157.352 1814.41 158.979 1817.27 162.234C1820.14 165.49 1821.57 170.177 1821.57 176.297C1821.57 180.333 1820.98 184.891 1819.81 189.969C1817.73 198.432 1812.26 216.857 1803.41 245.242C1795.07 271.805 1790.91 289.448 1790.91 298.172C1790.91 300.776 1791.3 302.729 1792.08 304.031C1792.86 305.333 1793.97 305.984 1795.4 305.984C1799.17 305.984 1805.1 302.339 1813.17 295.047C1818.9 289.839 1824.63 285.021 1830.36 280.594L1835.24 287.625C1823.26 300.906 1810.83 311.583 1797.94 319.656C1789.73 324.865 1782.96 327.469 1777.62 327.469C1772.68 327.469 1768.84 325.646 1766.1 322C1763.37 318.484 1762 312.69 1762 304.617C1762 293.029 1769.23 264.188 1783.68 218.094C1788.11 201.688 1790.32 192.117 1790.32 189.383C1790.32 185.346 1787.91 183.328 1783.09 183.328C1777.89 183.328 1771.18 186.062 1762.98 191.531C1750.74 199.604 1740.52 209.109 1732.31 220.047C1727.1 227.078 1722.74 238.276 1719.23 253.641L1703.41 321.805H1674.3C1679.77 302.273 1684.53 283.589 1688.56 265.75L1705.95 191.531C1706.6 188.536 1706.92 186.388 1706.92 185.086C1706.92 181.57 1705.62 179.812 1703.02 179.812C1700.93 179.812 1697.94 181.18 1694.03 183.914C1685.96 189.253 1678.41 195.763 1671.38 203.445Z"/>
</mask>
<path d="M559.328 272.977L565.773 281.57C533.872 311.909 506.529 327.078 483.742 327.078C474.497 327.078 467.401 323.953 462.453 317.703C457.635 311.453 455.227 301.427 455.227 287.625C455.227 259.76 463.69 232.026 480.617 204.422C499.628 173.042 522.349 157.352 548.781 157.352C558.026 157.352 565.057 159.695 569.875 164.383C574.823 168.94 577.297 175.255 577.297 183.328C577.297 191.792 574.367 200.125 568.508 208.328C562.648 216.531 552.167 225.06 537.062 233.914C529.51 238.211 513.365 245.958 488.625 257.156C487.453 264.188 486.867 270.893 486.867 277.273C486.867 286.518 488.299 292.964 491.164 296.609C494.159 300.255 498.456 302.078 504.055 302.078C509.393 302.078 515.253 300.581 521.633 297.586C530.227 293.549 542.792 285.346 559.328 272.977ZM490.969 244.656C511.932 235.281 527.688 225.19 538.234 214.383C545.396 206.831 548.977 199.344 548.977 191.922C548.977 186.323 547.479 181.896 544.484 178.641C541.62 175.255 537.844 173.562 533.156 173.562C528.339 173.562 523.651 175.385 519.094 179.031C512.974 183.849 507.831 191.141 503.664 200.906C497.674 215.229 493.443 229.812 490.969 244.656ZM734.125 154.422L747.016 151.688L732.367 201.102C726.508 220.763 720.974 243.419 715.766 269.07C712.901 283.003 711.469 291.987 711.469 296.023C711.469 300.06 713.096 302.078 716.352 302.078C718.435 302.078 721.755 300.711 726.312 297.977C734.385 293.159 742.133 287.169 749.555 280.008L755.805 287.625C740.961 301.167 731.456 309.37 727.289 312.234C718.956 317.964 711.013 322.195 703.461 324.93C698.513 326.753 693.695 327.664 689.008 327.664C685.622 327.664 683.083 326.883 681.391 325.32C679.698 323.758 678.852 321.479 678.852 318.484C678.852 316.531 679.372 313.862 680.414 310.477L688.227 283.914C677.029 297.326 663.682 308.849 648.188 318.484C638.682 324.474 629.958 327.469 622.016 327.469C614.464 327.469 608.669 324.799 604.633 319.461C599.164 312.299 596.43 302.924 596.43 291.336C596.43 277.534 600.076 262.169 607.367 245.242C614.789 228.315 624.685 212.951 637.055 199.148C649.424 185.346 662.445 175.19 676.117 168.68C686.664 163.732 700.206 161.258 716.742 161.258C720.909 161.258 725.141 161.518 729.438 162.039L734.125 154.422ZM709.906 184.305C702.875 182.872 696.951 182.156 692.133 182.156C680.414 182.156 670.193 185.411 661.469 191.922C652.745 198.302 644.607 209.891 637.055 226.688C629.633 243.354 625.922 260.021 625.922 276.688C625.922 285.542 627.419 291.922 630.414 295.828C633.409 299.734 637.315 301.688 642.133 301.688C651.117 301.688 660.753 296.87 671.039 287.234C681.326 277.469 688.878 263.471 693.695 245.242L709.906 184.305ZM858.141 274.93L864.781 281.961C854.625 293.419 842.581 303.901 828.648 313.406C814.846 322.781 803.453 327.469 794.469 327.469C790.432 327.469 787.112 325.906 784.508 322.781C781.904 319.786 780.602 315.62 780.602 310.281C780.602 299.865 784.638 278.25 792.711 245.438L813.805 159.695C821.487 128.706 827.932 107.938 833.141 97.3906C841.214 81.375 852.607 68.9401 867.32 60.0859C882.164 51.2318 897.789 46.8047 914.195 46.8047C919.794 46.8047 924.156 48.1719 927.281 50.9062C930.536 53.5104 932.164 56.7005 932.164 60.4766C932.164 64.6432 930.602 68.0938 927.477 70.8281C924.352 73.4323 919.794 74.7344 913.805 74.7344C909.898 74.7344 904.365 74.0833 897.203 72.7812C890.953 71.7396 885.159 71.2188 879.82 71.2188C874.482 71.2188 870.445 72.3255 867.711 74.5391C863.935 77.6641 860.484 84.2396 857.359 94.2656C854.365 104.292 849.417 124.083 842.516 153.641L823.18 235.477C813.544 276.492 808.727 297.911 808.727 299.734C808.727 303.901 810.224 305.984 813.219 305.984C816.083 305.984 820.25 304.292 825.719 300.906C836.526 294.135 847.333 285.477 858.141 274.93ZM883.914 206.18L876.297 198.367C888.146 184.174 899.93 173.693 911.648 166.922C923.367 160.151 933.523 156.766 942.117 156.766C945.372 156.766 947.911 157.612 949.734 159.305C951.688 160.867 952.664 163.211 952.664 166.336C952.664 170.112 952.208 174.018 951.297 178.055C950.516 181.961 947.911 191.336 943.484 206.18C963.406 186.258 977.013 173.953 984.305 169.266C996.544 161.323 1007.74 157.352 1017.9 157.352C1024.54 157.352 1030.14 160.477 1034.7 166.727C1039.25 172.977 1041.53 182.417 1041.53 195.047C1041.53 226.557 1031.7 256.505 1012.04 284.891C992.378 313.276 970.633 327.469 946.805 327.469C937.43 327.469 928.055 324.93 918.68 319.852L902.078 384.305C901.036 388.211 900.516 391.401 900.516 393.875C900.516 398.693 902.339 402.143 905.984 404.227C911.583 407.482 923.367 410.151 941.336 412.234L938.797 422C917.833 420.307 901.362 419.461 889.383 419.461C877.013 419.461 860.997 420.307 841.336 422L843.875 412.234C853.771 411.193 860.932 408.458 865.359 404.031C869.917 399.604 873.562 391.727 876.297 380.398L911.648 232.156C918.289 204.552 921.609 189.188 921.609 186.062C921.609 182.677 919.982 180.984 916.727 180.984C910.997 180.984 900.06 189.383 883.914 206.18ZM923.367 298.367C933.654 308.654 944.201 313.797 955.008 313.797C970.633 313.797 984.305 301.622 996.023 277.273C1007.87 252.924 1013.8 229.161 1013.8 205.984C1013.8 198.562 1012.1 192.964 1008.72 189.188C1005.46 185.281 1001.04 183.328 995.438 183.328C989.188 183.328 982.156 186.388 974.344 192.508C962.234 202.013 952.99 211.453 946.609 220.828C942.052 227.599 937.755 239.318 933.719 255.984L923.367 298.367ZM1101.29 322H1072.19L1085.86 269.461C1092.5 243.68 1098.29 219.201 1103.24 196.023C1104.41 190.294 1105 186.714 1105 185.281C1105 182.156 1103.57 180.594 1100.7 180.594C1098.75 180.594 1095.76 181.961 1091.72 184.695C1087.68 187.299 1080.39 193.875 1069.84 204.422L1063.79 197.586C1076.29 184.174 1088.72 174.148 1101.09 167.508C1113.59 160.737 1123.16 157.352 1129.8 157.352C1132.15 157.352 1133.97 157.938 1135.27 159.109C1136.71 160.151 1137.42 161.518 1137.42 163.211C1137.42 164.904 1136.58 169.396 1134.88 176.688L1126.48 211.648C1139.64 190.945 1154.48 173.237 1171.02 158.523C1178.96 151.492 1185.6 147.977 1190.94 147.977C1194.84 147.977 1198.1 149.279 1200.7 151.883C1203.31 154.357 1204.61 157.286 1204.61 160.672C1204.61 164.188 1203.31 167.182 1200.7 169.656C1198.23 172.13 1191.91 175.06 1181.76 178.445C1172.12 181.701 1164.24 185.607 1158.12 190.164C1152.14 194.721 1145.49 201.688 1138.2 211.062C1131.04 220.438 1126.03 228.641 1123.16 235.672C1120.3 242.573 1115.94 258.719 1110.08 284.109L1101.29 322ZM1289.95 157.742C1302.71 157.742 1313.33 162.82 1321.79 172.977C1330.25 183.133 1334.48 197.26 1334.48 215.359C1334.48 244.266 1324.33 270.242 1304.02 293.289C1283.7 316.206 1262.22 327.664 1239.56 327.664C1225.63 327.664 1214.37 323.107 1205.77 313.992C1197.31 304.878 1193.08 292.443 1193.08 276.688C1193.08 249.344 1200.89 224.083 1216.52 200.906C1236.18 172.13 1260.66 157.742 1289.95 157.742ZM1273.35 172.391C1262.28 172.391 1251.54 180.333 1241.12 196.219C1230.84 211.974 1225.7 233.784 1225.7 261.648C1225.7 278.576 1228.89 291.922 1235.27 301.688C1239.95 308.849 1246.2 312.43 1254.02 312.43C1264.95 312.43 1274.91 305.659 1283.9 292.117C1295.36 274.539 1301.09 252.729 1301.09 226.688C1301.09 207.156 1298.42 193.224 1293.08 184.891C1287.87 176.557 1281.29 172.391 1273.35 172.391ZM1415.92 127.664L1446.98 115.75L1432.91 170.438H1473.34L1470.22 184.305H1429.79L1412.6 249.734C1407.26 269.396 1404.59 283.068 1404.59 290.75C1404.59 294.266 1405.31 296.805 1406.74 298.367C1408.3 299.93 1410.39 300.711 1412.99 300.711C1417.03 300.711 1423.21 298.302 1431.55 293.484C1442.48 287.104 1452.9 279.878 1462.8 271.805L1470.22 280.789C1441.7 302.273 1422.63 315.424 1412.99 320.242C1403.36 325.06 1395.61 327.469 1389.75 327.469C1384.93 327.469 1381.09 325.711 1378.23 322.195C1375.49 318.68 1374.12 312.951 1374.12 305.008C1374.12 295.633 1376.6 281.31 1381.55 262.039L1401.66 184.305H1370.02L1373.54 170.438H1404.98L1415.92 127.664ZM1594.23 157.742C1606.99 157.742 1617.61 162.82 1626.07 172.977C1634.53 183.133 1638.77 197.26 1638.77 215.359C1638.77 244.266 1628.61 270.242 1608.3 293.289C1587.98 316.206 1566.5 327.664 1543.84 327.664C1529.91 327.664 1518.65 323.107 1510.05 313.992C1501.59 304.878 1497.36 292.443 1497.36 276.688C1497.36 249.344 1505.17 224.083 1520.8 200.906C1540.46 172.13 1564.94 157.742 1594.23 157.742ZM1577.63 172.391C1566.57 172.391 1555.82 180.333 1545.41 196.219C1535.12 211.974 1529.98 233.784 1529.98 261.648C1529.98 278.576 1533.17 291.922 1539.55 301.688C1544.23 308.849 1550.48 312.43 1558.3 312.43C1569.23 312.43 1579.2 305.659 1588.18 292.117C1599.64 274.539 1605.37 252.729 1605.37 226.688C1605.37 207.156 1602.7 193.224 1597.36 184.891C1592.15 176.557 1585.58 172.391 1577.63 172.391ZM1671.38 203.445L1664.73 196.609C1681.4 180.724 1694.68 170.177 1704.58 164.969C1714.47 159.76 1722.94 157.156 1729.97 157.156C1732.7 157.156 1734.85 157.742 1736.41 158.914C1737.98 160.086 1738.76 161.453 1738.76 163.016C1738.76 164.188 1738.43 166.271 1737.78 169.266L1728.99 208.523C1742.27 193.81 1758.94 180.073 1778.99 167.312C1789.67 160.672 1798.46 157.352 1805.36 157.352C1810.44 157.352 1814.41 158.979 1817.27 162.234C1820.14 165.49 1821.57 170.177 1821.57 176.297C1821.57 180.333 1820.98 184.891 1819.81 189.969C1817.73 198.432 1812.26 216.857 1803.41 245.242C1795.07 271.805 1790.91 289.448 1790.91 298.172C1790.91 300.776 1791.3 302.729 1792.08 304.031C1792.86 305.333 1793.97 305.984 1795.4 305.984C1799.17 305.984 1805.1 302.339 1813.17 295.047C1818.9 289.839 1824.63 285.021 1830.36 280.594L1835.24 287.625C1823.26 300.906 1810.83 311.583 1797.94 319.656C1789.73 324.865 1782.96 327.469 1777.62 327.469C1772.68 327.469 1768.84 325.646 1766.1 322C1763.37 318.484 1762 312.69 1762 304.617C1762 293.029 1769.23 264.188 1783.68 218.094C1788.11 201.688 1790.32 192.117 1790.32 189.383C1790.32 185.346 1787.91 183.328 1783.09 183.328C1777.89 183.328 1771.18 186.062 1762.98 191.531C1750.74 199.604 1740.52 209.109 1732.31 220.047C1727.1 227.078 1722.74 238.276 1719.23 253.641L1703.41 321.805H1674.3C1679.77 302.273 1684.53 283.589 1688.56 265.75L1705.95 191.531C1706.6 188.536 1706.92 186.388 1706.92 185.086C1706.92 181.57 1705.62 179.812 1703.02 179.812C1700.93 179.812 1697.94 181.18 1694.03 183.914C1685.96 189.253 1678.41 195.763 1671.38 203.445Z" fill="#211D1C"/>
<path d="M559.328 272.977L562.528 270.577L560.131 267.381L556.932 269.774L559.328 272.977ZM565.773 281.57L568.53 284.469L571.108 282.017L568.973 279.17L565.773 281.57ZM462.453 317.703L459.285 320.145L459.301 320.166L459.317 320.186L462.453 317.703ZM480.617 204.422L484.027 206.513L484.033 206.504L484.038 206.494L480.617 204.422ZM569.875 164.383L567.086 167.25L567.125 167.288L567.165 167.325L569.875 164.383ZM537.062 233.914L539.041 237.391L539.063 237.378L539.085 237.365L537.062 233.914ZM488.625 257.156L486.976 253.512L485.03 254.393L484.679 256.499L488.625 257.156ZM491.164 296.609L488.019 299.081L488.046 299.115L488.073 299.148L491.164 296.609ZM521.633 297.586L523.332 301.207L523.333 301.206L521.633 297.586ZM490.969 244.656L487.023 243.999L485.798 251.35L492.602 248.308L490.969 244.656ZM538.234 214.383L541.097 217.177L541.117 217.156L541.137 217.135L538.234 214.383ZM544.484 178.641L541.431 181.224L541.484 181.288L541.541 181.349L544.484 178.641ZM519.094 179.031L521.568 182.174L521.58 182.165L521.593 182.155L519.094 179.031ZM503.664 200.906L499.985 199.337L499.979 199.35L499.974 199.363L503.664 200.906ZM556.128 275.377L562.573 283.97L568.973 279.17L562.528 270.577L556.128 275.377ZM563.017 278.672C531.252 308.881 504.893 323.078 483.742 323.078V331.078C508.164 331.078 536.493 314.937 568.53 284.469L563.017 278.672ZM483.742 323.078C475.5 323.078 469.652 320.352 465.589 315.22L459.317 320.186C465.15 327.554 473.495 331.078 483.742 331.078V323.078ZM465.621 315.261C461.618 310.067 459.227 301.135 459.227 287.625H451.227C451.227 301.719 453.653 312.839 459.285 320.145L465.621 315.261ZM459.227 287.625C459.227 260.611 467.422 233.591 484.027 206.513L477.207 202.331C459.958 230.461 451.227 258.91 451.227 287.625H459.227ZM484.038 206.494C502.637 175.795 524.261 161.352 548.781 161.352V153.352C520.437 153.352 496.619 170.289 477.196 202.349L484.038 206.494ZM548.781 161.352C557.382 161.352 563.258 163.526 567.086 167.25L572.664 161.516C566.857 155.865 558.67 153.352 548.781 153.352V161.352ZM567.165 167.325C571.128 170.975 573.297 176.131 573.297 183.328H581.297C581.297 174.38 578.518 166.905 572.585 161.441L567.165 167.325ZM573.297 183.328C573.297 190.808 570.723 198.346 565.253 206.003L571.763 210.653C578.012 201.904 581.297 192.775 581.297 183.328H573.297ZM565.253 206.003C559.878 213.528 549.965 221.714 535.04 230.463L539.085 237.365C554.369 228.406 565.419 219.534 571.763 210.653L565.253 206.003ZM535.084 230.437C527.721 234.627 511.748 242.299 486.976 253.512L490.274 260.8C514.981 249.618 531.3 241.795 539.041 237.391L535.084 230.437ZM484.679 256.499C483.475 263.722 482.867 270.649 482.867 277.273H490.867C490.867 271.137 491.431 264.653 492.571 257.814L484.679 256.499ZM482.867 277.273C482.867 286.664 484.269 294.308 488.019 299.081L494.309 294.138C492.33 291.619 490.867 286.372 490.867 277.273H482.867ZM488.073 299.148C491.972 303.895 497.507 306.078 504.055 306.078V298.078C499.405 298.078 496.345 296.615 494.255 294.07L488.073 299.148ZM504.055 306.078C510.137 306.078 516.583 304.375 523.332 301.207L519.933 293.965C513.922 296.786 508.649 298.078 504.055 298.078V306.078ZM523.333 301.206C532.322 296.985 545.162 288.568 561.724 276.18L556.932 269.774C540.421 282.124 528.132 290.114 519.932 293.965L523.333 301.206ZM492.602 248.308C513.81 238.823 530.064 228.482 541.097 217.177L535.372 211.589C525.311 221.898 510.054 231.739 489.336 241.005L492.602 248.308ZM541.137 217.135C548.718 209.141 552.977 200.718 552.977 191.922H544.977C544.977 197.969 542.074 204.521 535.332 211.63L541.137 217.135ZM552.977 191.922C552.977 185.597 551.269 180.107 547.428 175.932L541.541 181.349C543.689 183.684 544.977 187.049 544.977 191.922H552.977ZM547.538 176.057C543.865 171.716 538.944 169.562 533.156 169.562V177.562C536.744 177.562 539.374 178.794 541.431 181.224L547.538 176.057ZM533.156 169.562C527.25 169.562 521.707 171.819 516.595 175.908L521.593 182.155C525.596 178.952 529.427 177.562 533.156 177.562V169.562ZM516.62 175.888C509.816 181.244 504.324 189.168 499.985 199.337L507.343 202.476C511.338 193.113 516.132 186.453 521.568 182.174L516.62 175.888ZM499.974 199.363C493.869 213.961 489.549 228.841 487.023 243.999L494.914 245.314C497.336 230.784 501.48 216.497 507.354 202.449L499.974 199.363ZM734.125 154.422L733.295 150.509L731.617 150.865L730.718 152.325L734.125 154.422ZM747.016 151.688L750.851 152.824L752.761 146.38L746.186 147.775L747.016 151.688ZM732.367 201.102L736.201 202.244L736.202 202.238L732.367 201.102ZM715.766 269.07L719.684 269.876L719.686 269.866L715.766 269.07ZM726.312 297.977L724.263 294.542L724.255 294.547L726.312 297.977ZM749.555 280.008L752.647 277.471L749.897 274.119L746.777 277.129L749.555 280.008ZM755.805 287.625L758.501 290.58L761.305 288.022L758.897 285.088L755.805 287.625ZM727.289 312.234L725.023 308.938L727.289 312.234ZM703.461 324.93L702.099 321.169L702.089 321.172L702.078 321.176L703.461 324.93ZM680.414 310.477L684.237 311.653L684.245 311.629L684.252 311.605L680.414 310.477ZM688.227 283.914L692.064 285.043L685.156 281.35L688.227 283.914ZM648.188 318.484L646.075 315.088L646.065 315.094L646.055 315.1L648.188 318.484ZM604.633 319.461L607.823 317.048L607.818 317.041L607.812 317.033L604.633 319.461ZM607.367 245.242L603.704 243.636L603.699 243.648L603.694 243.66L607.367 245.242ZM637.055 199.148L634.076 196.479L637.055 199.148ZM676.117 168.68L674.418 165.058L674.408 165.063L674.397 165.068L676.117 168.68ZM729.438 162.039L728.956 166.01L731.501 166.318L732.844 164.135L729.438 162.039ZM709.906 184.305L713.772 185.333L714.863 181.232L710.705 180.385L709.906 184.305ZM661.469 191.922L663.83 195.151L663.846 195.139L663.861 195.128L661.469 191.922ZM637.055 226.688L633.406 225.047L633.404 225.054L633.401 225.06L637.055 226.688ZM630.414 295.828L633.588 293.394L630.414 295.828ZM671.039 287.234L673.774 290.154L673.783 290.145L673.793 290.135L671.039 287.234ZM693.695 245.242L689.83 244.214L689.828 244.22L693.695 245.242ZM734.955 158.335L747.846 155.6L746.186 147.775L733.295 150.509L734.955 158.335ZM743.181 150.551L728.532 199.965L736.202 202.238L750.851 152.824L743.181 150.551ZM728.534 199.959C722.633 219.761 717.072 242.537 711.846 268.274L719.686 269.866C724.876 244.302 730.383 221.765 736.201 202.244L728.534 199.959ZM711.848 268.265C709.007 282.082 707.469 291.497 707.469 296.023H715.469C715.469 292.477 716.795 283.924 719.684 269.876L711.848 268.265ZM707.469 296.023C707.469 298.475 707.946 301.054 709.576 303.075C711.338 305.261 713.852 306.078 716.352 306.078V298.078C715.944 298.078 715.771 298.014 715.743 298.003C715.74 298.002 715.781 298.026 715.803 298.053C715.805 298.056 715.469 297.609 715.469 296.023H707.469ZM716.352 306.078C718.163 306.078 720.083 305.511 721.927 304.751C723.837 303.965 725.994 302.833 728.37 301.407L724.255 294.547C722.074 295.855 720.292 296.773 718.881 297.354C717.405 297.962 716.623 298.078 716.352 298.078V306.078ZM728.362 301.411C736.722 296.422 744.711 290.24 752.332 282.886L746.777 277.129C739.555 284.098 732.049 289.895 724.263 294.542L728.362 301.411ZM746.462 282.545L752.712 290.162L758.897 285.088L752.647 277.471L746.462 282.545ZM753.109 284.67C738.19 298.28 728.912 306.265 725.023 308.938L729.555 315.531C734 312.475 743.732 304.053 758.501 290.58L753.109 284.67ZM725.023 308.938C716.901 314.522 709.261 318.575 702.099 321.169L704.823 328.691C712.765 325.815 721.01 321.405 729.555 315.531L725.023 308.938ZM702.078 321.176C697.518 322.856 693.168 323.664 689.008 323.664V331.664C694.222 331.664 699.508 330.649 704.844 328.683L702.078 321.176ZM689.008 323.664C686.163 323.664 684.775 323.001 684.104 322.381L678.678 328.26C681.391 330.765 685.082 331.664 689.008 331.664V323.664ZM684.104 322.381C683.459 321.786 682.852 320.716 682.852 318.484H674.852C674.852 322.242 675.936 325.729 678.678 328.26L684.104 322.381ZM682.852 318.484C682.852 317.13 683.234 314.913 684.237 311.653L676.591 309.3C675.511 312.81 674.852 315.932 674.852 318.484H682.852ZM684.252 311.605L692.064 285.043L684.389 282.785L676.577 309.348L684.252 311.605ZM685.156 281.35C674.243 294.421 661.224 305.667 646.075 315.088L650.3 321.881C666.14 312.031 679.814 300.23 691.297 286.478L685.156 281.35ZM646.055 315.1C636.936 320.847 628.952 323.469 622.016 323.469V331.469C630.964 331.469 640.429 328.101 650.32 321.869L646.055 315.1ZM622.016 323.469C615.533 323.469 610.999 321.249 607.823 317.048L601.442 321.873C606.339 328.35 613.394 331.469 622.016 331.469V323.469ZM607.812 317.033C603.011 310.746 600.43 302.3 600.43 291.336H592.43C592.43 303.549 595.317 313.853 601.454 321.889L607.812 317.033ZM600.43 291.336C600.43 278.228 603.896 263.411 611.041 246.825L603.694 243.66C596.255 260.928 592.43 276.84 592.43 291.336H600.43ZM611.031 246.848C618.282 230.311 627.946 215.305 640.033 201.818L634.076 196.479C621.424 210.596 611.297 226.319 603.704 243.636L611.031 246.848ZM640.033 201.818C652.127 188.324 664.737 178.529 677.837 172.291L674.397 165.068C660.154 171.851 646.722 182.368 634.076 196.479L640.033 201.818ZM677.816 172.301C687.657 167.684 700.564 165.258 716.742 165.258V157.258C699.848 157.258 685.671 159.779 674.418 165.058L677.816 172.301ZM716.742 165.258C720.742 165.258 724.813 165.508 728.956 166.01L729.919 158.068C725.468 157.529 721.076 157.258 716.742 157.258V165.258ZM732.844 164.135L737.532 156.518L730.718 152.325L726.031 159.943L732.844 164.135ZM710.705 180.385C703.525 178.923 697.314 178.156 692.133 178.156V186.156C696.587 186.156 702.225 186.822 709.108 188.224L710.705 180.385ZM692.133 178.156C679.622 178.156 668.545 181.65 659.076 188.716L663.861 195.128C671.84 189.173 681.206 186.156 692.133 186.156V178.156ZM659.107 188.693C649.558 195.677 641.067 208.009 633.406 225.047L640.703 228.328C648.146 211.773 655.931 200.927 663.83 195.151L659.107 188.693ZM633.401 225.06C625.772 242.19 621.922 259.409 621.922 276.688H629.922C629.922 260.633 633.493 244.518 640.709 228.315L633.401 225.06ZM621.922 276.688C621.922 285.802 623.426 293.288 627.24 298.262L633.588 293.394C631.412 290.556 629.922 285.282 629.922 276.688H621.922ZM627.24 298.262C630.972 303.13 636.04 305.688 642.133 305.688V297.688C638.591 297.688 635.846 296.338 633.588 293.394L627.24 298.262ZM642.133 305.688C652.578 305.688 663.151 300.104 673.774 290.154L668.305 284.315C658.354 293.636 649.657 297.688 642.133 297.688V305.688ZM673.793 290.135C684.767 279.717 692.616 264.981 697.563 246.264L689.828 244.22C685.139 261.962 677.884 275.221 668.285 284.333L673.793 290.135ZM697.561 246.271L713.772 185.333L706.041 183.276L689.83 244.214L697.561 246.271ZM858.141 274.93L861.049 272.183L858.257 269.227L855.347 272.067L858.141 274.93ZM864.781 281.961L867.775 284.614L870.202 281.875L867.689 279.214L864.781 281.961ZM828.648 313.406L830.896 316.715L830.903 316.711L828.648 313.406ZM784.508 322.781L787.581 320.221L787.554 320.188L787.526 320.157L784.508 322.781ZM792.711 245.438L796.595 246.393L796.595 246.393L792.711 245.438ZM813.805 159.695L809.922 158.733L809.921 158.74L813.805 159.695ZM833.141 97.3906L829.569 95.5902L829.561 95.6048L829.554 95.6195L833.141 97.3906ZM867.32 60.0859L865.271 56.6507L865.265 56.6546L865.258 56.6586L867.32 60.0859ZM927.281 50.9062L924.647 53.9166L924.714 53.9746L924.782 54.0297L927.281 50.9062ZM927.477 70.8281L930.037 73.901L930.074 73.8702L930.111 73.8384L927.477 70.8281ZM897.203 72.7812L897.919 68.8458L897.89 68.8405L897.861 68.8357L897.203 72.7812ZM867.711 74.5391L865.194 71.4301L865.177 71.4437L865.161 71.4575L867.711 74.5391ZM857.359 94.2656L853.541 93.0753L853.534 93.098L853.527 93.1208L857.359 94.2656ZM842.516 153.641L846.408 154.56L846.411 154.55L842.516 153.641ZM823.18 235.477L819.287 234.557L819.286 234.562L823.18 235.477ZM825.719 300.906L827.824 304.307L827.833 304.302L827.842 304.296L825.719 300.906ZM855.233 277.676L861.873 284.707L867.689 279.214L861.049 272.183L855.233 277.676ZM861.788 279.308C851.871 290.496 840.081 300.764 826.394 310.102L830.903 316.711C845.08 307.038 857.379 296.343 867.775 284.614L861.788 279.308ZM826.401 310.097C812.774 319.353 802.216 323.469 794.469 323.469V331.469C804.69 331.469 816.918 326.209 830.896 316.715L826.401 310.097ZM794.469 323.469C791.63 323.469 789.432 322.442 787.581 320.221L781.435 325.342C784.792 329.371 789.234 331.469 794.469 331.469V323.469ZM787.526 320.157C785.745 318.108 784.602 314.991 784.602 310.281H776.602C776.602 316.248 778.062 321.464 781.489 325.406L787.526 320.157ZM784.602 310.281C784.602 300.439 788.495 279.315 796.595 246.393L788.827 244.482C780.781 277.185 776.602 299.29 776.602 310.281H784.602ZM796.595 246.393L817.689 160.651L809.921 158.74L788.827 244.482L796.595 246.393ZM817.687 160.658C825.379 129.628 831.737 109.266 836.727 99.1617L829.554 95.6195C824.127 106.609 817.594 127.784 809.922 158.733L817.687 160.658ZM836.712 99.1911C844.462 83.8178 855.345 71.9606 869.383 63.5132L865.258 56.6586C849.868 65.9196 837.965 78.9322 829.569 95.5902L836.712 99.1911ZM869.369 63.5212C883.628 55.016 898.55 50.8047 914.195 50.8047V42.8047C897.028 42.8047 880.7 47.4475 865.271 56.6507L869.369 63.5212ZM914.195 50.8047C919.166 50.8047 922.472 52.0135 924.647 53.9166L929.915 47.8959C925.84 44.3302 920.423 42.8047 914.195 42.8047V50.8047ZM924.782 54.0297C927.201 55.9648 928.164 58.0527 928.164 60.4766H936.164C936.164 55.3483 933.872 51.0561 929.78 47.7828L924.782 54.0297ZM928.164 60.4766C928.164 63.4943 927.096 65.846 924.843 67.8178L930.111 73.8384C934.107 70.3415 936.164 65.7921 936.164 60.4766H928.164ZM924.916 67.7552C922.782 69.5337 919.287 70.7344 913.805 70.7344V78.7344C920.301 78.7344 925.921 77.3309 930.037 73.901L924.916 67.7552ZM913.805 70.7344C910.262 70.7344 905.009 70.1349 897.919 68.8458L896.488 76.7167C903.72 78.0318 909.535 78.7344 913.805 78.7344V70.7344ZM897.861 68.8357C891.432 67.7643 885.415 67.2188 879.82 67.2188V75.2188C884.902 75.2188 890.474 75.7149 896.546 76.7268L897.861 68.8357ZM879.82 67.2188C874.018 67.2188 868.927 68.4082 865.194 71.4301L870.228 77.648C871.964 76.2428 874.945 75.2188 879.82 75.2188V67.2188ZM865.161 71.4575C860.411 75.3884 856.686 82.9828 853.541 93.0753L861.178 95.4559C864.282 85.4964 867.459 79.9397 870.261 77.6206L865.161 71.4575ZM853.527 93.1208C850.492 103.282 845.518 123.191 838.62 152.731L846.411 154.55C853.316 124.976 858.238 105.301 861.192 95.4104L853.527 93.1208ZM838.623 152.721L819.287 234.557L827.073 236.396L846.408 154.56L838.623 152.721ZM819.286 234.562C814.467 255.073 810.85 270.696 808.437 281.425C807.231 286.787 806.322 290.943 805.713 293.881C805.409 295.347 805.175 296.534 805.015 297.427C804.885 298.151 804.727 299.074 804.727 299.734H812.727C812.727 299.939 812.718 299.794 812.89 298.838C813.031 298.05 813.248 296.944 813.547 295.505C814.142 292.633 815.039 288.528 816.242 283.181C818.647 272.49 822.257 256.896 827.074 236.391L819.286 234.562ZM804.727 299.734C804.727 302.177 805.144 304.728 806.602 306.756C808.235 309.029 810.68 309.984 813.219 309.984V301.984C812.932 301.984 812.872 301.935 812.936 301.965C812.967 301.979 813.007 302.003 813.045 302.035C813.082 302.066 813.099 302.089 813.098 302.087C813.092 302.08 812.993 301.936 812.897 301.537C812.801 301.135 812.727 300.549 812.727 299.734H804.727ZM813.219 309.984C815.376 309.984 817.678 309.363 819.998 308.421C822.357 307.462 824.973 306.072 827.824 304.307L823.613 297.505C820.996 299.125 818.794 300.275 816.987 301.009C815.139 301.759 813.926 301.984 813.219 301.984V309.984ZM827.842 304.296C838.931 297.349 849.959 288.503 860.934 277.792L855.347 272.067C844.707 282.45 834.122 290.922 823.595 297.517L827.842 304.296ZM883.914 206.18L881.05 208.972L883.934 211.93L886.798 208.952L883.914 206.18ZM876.297 198.367L873.226 195.804L870.913 198.575L873.433 201.16L876.297 198.367ZM949.734 159.305L947.013 162.236L947.121 162.336L947.236 162.428L949.734 159.305ZM951.297 178.055L947.395 177.174L947.384 177.222L947.375 177.27L951.297 178.055ZM943.484 206.18L939.651 205.036L946.313 209.008L943.484 206.18ZM984.305 169.266L986.468 172.63L986.475 172.626L986.482 172.621L984.305 169.266ZM918.68 319.852L920.585 316.334L916.083 313.896L914.806 318.854L918.68 319.852ZM902.078 384.305L905.943 385.335L905.947 385.319L905.952 385.302L902.078 384.305ZM905.984 404.227L907.995 400.769L907.982 400.761L907.969 400.754L905.984 404.227ZM941.336 412.234L945.207 413.241L946.364 408.791L941.797 408.261L941.336 412.234ZM938.797 422L938.475 425.987L941.823 426.257L942.668 423.007L938.797 422ZM841.336 422L837.465 420.993L836.041 426.471L841.679 425.985L841.336 422ZM843.875 412.234L843.456 408.256L840.701 408.546L840.004 411.228L843.875 412.234ZM865.359 404.031L862.572 401.162L862.551 401.182L862.531 401.203L865.359 404.031ZM876.297 380.398L880.185 381.337L880.188 381.326L876.297 380.398ZM911.648 232.156L907.759 231.221L907.758 231.228L911.648 232.156ZM923.367 298.367L919.481 297.418L918.947 299.604L920.539 301.196L923.367 298.367ZM996.023 277.273L992.427 275.523L992.423 275.531L992.419 275.539L996.023 277.273ZM1008.72 189.188L1005.65 191.748L1005.69 191.804L1005.74 191.858L1008.72 189.188ZM974.344 192.508L971.877 189.359L971.874 189.361L974.344 192.508ZM946.609 220.828L943.303 218.578L943.297 218.586L943.291 218.595L946.609 220.828ZM933.719 255.984L937.605 256.933L937.606 256.926L933.719 255.984ZM886.778 203.387L879.161 195.575L873.433 201.16L881.05 208.972L886.778 203.387ZM879.367 200.931C891.018 186.975 902.456 176.853 913.65 170.385L909.647 163.458C897.403 170.533 885.274 181.373 873.226 195.804L879.367 200.931ZM913.65 170.385C925.078 163.783 934.519 160.766 942.117 160.766V152.766C932.528 152.766 921.657 156.52 909.647 163.458L913.65 170.385ZM942.117 160.766C944.683 160.766 946.135 161.421 947.013 162.236L952.456 156.374C949.688 153.803 946.062 152.766 942.117 152.766V160.766ZM947.236 162.428C948.008 163.046 948.664 164.094 948.664 166.336H956.664C956.664 162.328 955.367 158.689 952.233 156.181L947.236 162.428ZM948.664 166.336C948.664 169.789 948.247 173.399 947.395 177.174L955.199 178.936C956.169 174.637 956.664 170.435 956.664 166.336H948.664ZM947.375 177.27C946.638 180.955 944.097 190.13 939.651 205.036L947.318 207.323C951.726 192.542 954.394 182.967 955.219 178.839L947.375 177.27ZM946.313 209.008C966.305 189.016 979.605 177.042 986.468 172.63L982.142 165.901C974.421 170.864 960.507 183.5 940.656 203.351L946.313 209.008ZM986.482 172.621C998.343 164.924 1008.78 161.352 1017.9 161.352V153.352C1006.7 153.352 994.746 157.722 982.127 165.91L986.482 172.621ZM1017.9 161.352C1023.04 161.352 1027.52 163.672 1031.46 169.083L1037.93 164.37C1032.76 157.281 1026.04 153.352 1017.9 153.352V161.352ZM1031.46 169.083C1035.29 174.337 1037.53 182.773 1037.53 195.047H1045.53C1045.53 182.06 1043.21 171.616 1037.93 164.37L1031.46 169.083ZM1037.53 195.047C1037.53 225.665 1028 254.83 1008.75 282.613L1015.33 287.168C1035.41 258.181 1045.53 227.449 1045.53 195.047H1037.53ZM1008.75 282.613C989.479 310.436 968.798 323.469 946.805 323.469V331.469C972.468 331.469 995.276 316.116 1015.33 287.168L1008.75 282.613ZM946.805 323.469C938.182 323.469 929.456 321.14 920.585 316.334L916.775 323.369C926.653 328.72 936.678 331.469 946.805 331.469V323.469ZM914.806 318.854L898.205 383.307L905.952 385.302L922.553 320.849L914.806 318.854ZM898.213 383.274C897.131 387.333 896.516 390.904 896.516 393.875H904.516C904.516 391.898 904.942 389.089 905.943 385.335L898.213 383.274ZM896.516 393.875C896.516 399.874 898.902 404.786 904 407.7L907.969 400.754C905.775 399.5 904.516 397.511 904.516 393.875H896.516ZM903.974 407.685C907.307 409.623 912.13 411.21 918.138 412.571C924.219 413.949 931.811 415.157 940.875 416.208L941.797 408.261C932.892 407.229 925.607 406.06 919.905 404.769C914.129 403.46 910.26 402.086 907.995 400.769L903.974 407.685ZM937.465 411.228L934.926 420.993L942.668 423.007L945.207 413.241L937.465 411.228ZM939.119 418.013C918.115 416.317 901.52 415.461 889.383 415.461V423.461C901.204 423.461 917.552 424.298 938.475 425.987L939.119 418.013ZM889.383 415.461C876.852 415.461 860.71 416.317 840.993 418.015L841.679 425.985C861.285 424.297 877.174 423.461 889.383 423.461V415.461ZM845.207 423.007L847.746 413.241L840.004 411.228L837.465 420.993L845.207 423.007ZM844.294 416.212C854.598 415.128 862.828 412.219 868.188 406.86L862.531 401.203C859.037 404.697 852.944 407.258 843.456 408.256L844.294 416.212ZM868.147 406.9C873.534 401.667 877.4 392.875 880.185 381.337L872.409 379.46C869.725 390.578 866.299 397.542 862.572 401.162L868.147 406.9ZM880.188 381.326L915.539 233.084L907.758 231.228L872.406 379.471L880.188 381.326ZM915.537 233.092C918.86 219.279 921.359 208.502 923.029 200.775C923.863 196.914 924.497 193.786 924.924 191.408C925.328 189.157 925.609 187.26 925.609 186.062H917.609C917.609 186.428 917.476 187.623 917.05 189.994C916.647 192.239 916.035 195.263 915.209 199.085C913.559 206.722 911.077 217.429 907.759 231.221L915.537 233.092ZM925.609 186.062C925.609 183.792 925.066 181.347 923.272 179.481C921.45 177.587 919.012 176.984 916.727 176.984V184.984C917.205 184.984 917.457 185.048 917.553 185.081C917.627 185.107 917.579 185.103 917.505 185.026C917.339 184.854 917.609 184.948 917.609 186.062H925.609ZM916.727 176.984C914.395 176.984 911.984 177.813 909.653 178.987C907.267 180.189 904.639 181.923 901.79 184.111C896.091 188.487 889.161 194.949 881.03 203.408L886.798 208.952C894.812 200.614 901.424 194.478 906.663 190.456C909.283 188.444 911.473 187.028 913.253 186.131C915.089 185.206 916.193 184.984 916.727 184.984V176.984ZM920.539 301.196C931.308 311.965 942.814 317.797 955.008 317.797V309.797C945.588 309.797 935.999 305.342 926.196 295.539L920.539 301.196ZM955.008 317.797C973.075 317.797 987.755 303.677 999.628 279.008L992.419 275.539C980.854 299.568 968.191 309.797 955.008 309.797V317.797ZM999.62 279.024C1011.69 254.221 1017.8 229.862 1017.8 205.984H1009.8C1009.8 228.461 1004.05 251.628 992.427 275.523L999.62 279.024ZM1017.8 205.984C1017.8 198.026 1015.99 191.304 1011.7 186.517L1005.74 191.858C1008.22 194.623 1009.8 199.099 1009.8 205.984H1017.8ZM1011.79 186.627C1007.69 181.709 1002.09 179.328 995.438 179.328V187.328C999.985 187.328 1003.23 188.853 1005.65 191.748L1011.79 186.627ZM995.438 179.328C987.902 179.328 980.007 182.99 971.877 189.359L976.81 195.657C984.305 189.786 990.473 187.328 995.438 187.328V179.328ZM971.874 189.361C959.549 199.036 949.98 208.766 943.303 218.578L949.916 223.079C955.999 214.14 964.92 204.99 976.814 195.654L971.874 189.361ZM943.291 218.595C938.311 225.994 933.884 238.309 929.831 255.043L937.606 256.926C941.627 240.326 945.793 229.204 949.928 223.062L943.291 218.595ZM929.833 255.035L919.481 297.418L927.253 299.316L937.605 256.933L929.833 255.035ZM1101.29 322V326H1104.47L1105.19 322.904L1101.29 322ZM1072.19 322L1068.32 320.993L1067.01 326H1072.19V322ZM1085.86 269.461L1089.73 270.468L1089.73 270.459L1085.86 269.461ZM1103.24 196.023L1107.15 196.859L1107.16 196.842L1107.16 196.825L1103.24 196.023ZM1091.72 184.695L1093.89 188.057L1093.92 188.032L1093.96 188.007L1091.72 184.695ZM1069.84 204.422L1066.85 207.074L1069.67 210.255L1072.67 207.25L1069.84 204.422ZM1063.79 197.586L1060.86 194.859L1058.38 197.517L1060.79 200.238L1063.79 197.586ZM1101.09 167.508L1102.99 171.032L1102.99 171.029L1103 171.025L1101.09 167.508ZM1135.27 159.109L1132.6 162.083L1132.75 162.222L1132.92 162.344L1135.27 159.109ZM1134.88 176.688L1138.77 177.622L1138.78 177.607L1138.78 177.592L1134.88 176.688ZM1126.48 211.648L1122.6 210.714L1129.86 213.793L1126.48 211.648ZM1171.02 158.523L1168.36 155.528L1168.36 155.535L1171.02 158.523ZM1200.7 151.883L1197.87 154.711L1197.91 154.747L1197.95 154.783L1200.7 151.883ZM1200.7 169.656L1197.95 166.756L1197.91 166.792L1197.87 166.828L1200.7 169.656ZM1181.76 178.445L1180.49 174.651L1180.49 174.653L1180.48 174.656L1181.76 178.445ZM1158.12 190.164L1155.74 186.956L1155.72 186.968L1155.7 186.981L1158.12 190.164ZM1138.2 211.062L1135.05 208.607L1135.04 208.62L1135.02 208.634L1138.2 211.062ZM1123.16 235.672L1126.86 237.205L1126.86 237.193L1126.87 237.181L1123.16 235.672ZM1110.08 284.109L1113.97 285.013L1113.98 285.009L1110.08 284.109ZM1101.29 318H1072.19V326H1101.29V318ZM1076.06 323.007L1089.73 270.468L1081.99 268.454L1068.32 320.993L1076.06 323.007ZM1089.73 270.459C1096.39 244.63 1102.19 220.096 1107.15 196.859L1099.33 195.188C1094.4 218.305 1088.61 242.729 1081.99 268.463L1089.73 270.459ZM1107.16 196.825C1107.75 193.936 1108.2 191.551 1108.51 189.687C1108.8 187.91 1109 186.361 1109 185.281H1101C1101 185.633 1100.91 186.592 1100.61 188.395C1100.33 190.112 1099.9 192.382 1099.32 195.222L1107.16 196.825ZM1109 185.281C1109 183.184 1108.53 180.865 1106.87 179.063C1105.16 177.194 1102.85 176.594 1100.7 176.594V184.594C1101.07 184.594 1101.21 184.644 1101.22 184.646C1101.22 184.646 1101.21 184.645 1101.21 184.643C1101.21 184.642 1101.2 184.639 1101.19 184.635C1101.18 184.627 1101.16 184.616 1101.13 184.6C1101.08 184.566 1101.03 184.521 1100.98 184.469C1100.87 184.356 1100.87 184.295 1100.91 184.399C1100.94 184.519 1101 184.793 1101 185.281H1109ZM1100.7 176.594C1098.89 176.594 1097.04 177.2 1095.33 177.98C1093.56 178.789 1091.6 179.945 1089.48 181.384L1093.96 188.007C1095.87 186.711 1097.43 185.816 1098.65 185.258C1099.94 184.671 1100.56 184.594 1100.7 184.594V176.594ZM1089.55 181.334C1085.09 184.21 1077.5 191.106 1067.02 201.593L1072.67 207.25C1083.28 196.644 1090.27 190.389 1093.89 188.057L1089.55 181.334ZM1072.84 201.77L1066.78 194.934L1060.79 200.238L1066.85 207.074L1072.84 201.77ZM1066.72 200.313C1079 187.13 1091.1 177.413 1102.99 171.032L1099.2 163.984C1086.35 170.884 1073.58 181.219 1060.86 194.859L1066.72 200.313ZM1103 171.025C1115.44 164.287 1124.24 161.352 1129.8 161.352V153.352C1122.09 153.352 1111.75 157.187 1099.19 163.991L1103 171.025ZM1129.8 161.352C1131.5 161.352 1132.25 161.768 1132.6 162.083L1137.95 156.136C1135.69 154.107 1132.8 153.352 1129.8 153.352V161.352ZM1132.92 162.344C1133.21 162.557 1133.31 162.709 1133.34 162.772C1133.37 162.829 1133.42 162.947 1133.42 163.211H1141.42C1141.42 160.17 1140.04 157.628 1137.63 155.874L1132.92 162.344ZM1133.42 163.211C1133.42 163.632 1133.29 164.83 1132.86 167.109C1132.45 169.277 1131.83 172.162 1130.99 175.783L1138.78 177.592C1139.63 173.921 1140.28 170.915 1140.72 168.59C1141.13 166.377 1141.42 164.483 1141.42 163.211H1133.42ZM1130.99 175.753L1122.6 210.714L1130.37 212.583L1138.77 177.622L1130.99 175.753ZM1129.86 213.793C1142.83 193.37 1157.44 175.954 1173.67 161.512L1168.36 155.535C1151.52 170.52 1136.44 188.521 1123.11 209.504L1129.86 213.793ZM1173.67 161.518C1181.5 154.588 1187.17 151.977 1190.94 151.977V143.977C1184.03 143.977 1176.42 148.397 1168.36 155.528L1173.67 161.518ZM1190.94 151.977C1193.85 151.977 1196.07 152.906 1197.87 154.711L1203.53 149.054C1200.13 145.651 1195.83 143.977 1190.94 143.977V151.977ZM1197.95 154.783C1199.81 156.553 1200.61 158.456 1200.61 160.672H1208.61C1208.61 156.117 1206.8 152.16 1203.46 148.983L1197.95 154.783ZM1200.61 160.672C1200.61 163.064 1199.78 165.019 1197.95 166.756L1203.46 172.556C1206.84 169.346 1208.61 165.311 1208.61 160.672H1200.61ZM1197.87 166.828C1197.16 167.546 1195.5 168.657 1192.43 170.08C1189.46 171.458 1185.5 172.983 1180.49 174.651L1183.02 182.24C1188.18 180.522 1192.45 178.89 1195.79 177.338C1199.04 175.831 1201.78 174.241 1203.53 172.485L1197.87 166.828ZM1180.48 174.656C1170.57 178.003 1162.28 182.08 1155.74 186.956L1160.51 193.372C1166.21 189.133 1173.68 185.398 1183.04 182.235L1180.48 174.656ZM1155.7 186.981C1149.33 191.832 1142.44 199.096 1135.05 208.607L1141.36 213.518C1148.55 204.279 1154.94 197.61 1160.55 193.347L1155.7 186.981ZM1135.02 208.634C1127.75 218.154 1122.51 226.675 1119.46 234.163L1126.87 237.181C1129.55 230.607 1134.33 222.721 1141.38 213.491L1135.02 208.634ZM1119.47 234.138C1116.45 241.41 1112.02 257.911 1106.18 283.21L1113.98 285.009C1119.86 259.527 1124.15 243.736 1126.86 237.205L1119.47 234.138ZM1106.18 283.206L1097.39 321.096L1105.19 322.904L1113.97 285.013L1106.18 283.206ZM1304.02 293.289L1307.01 295.942L1307.02 295.934L1304.02 293.289ZM1205.77 313.992L1202.84 316.714L1202.85 316.725L1202.86 316.736L1205.77 313.992ZM1216.52 200.906L1213.21 198.65L1213.21 198.66L1213.2 198.67L1216.52 200.906ZM1241.12 196.219L1237.78 194.025L1237.78 194.032L1241.12 196.219ZM1235.27 301.688L1231.92 303.875L1231.92 303.878L1235.27 301.688ZM1283.9 292.117L1287.23 294.329L1287.24 294.315L1287.25 294.302L1283.9 292.117ZM1293.08 184.891L1289.69 187.011L1289.7 187.03L1289.71 187.048L1293.08 184.891ZM1289.95 161.742C1301.48 161.742 1310.98 166.255 1318.72 175.537L1324.86 170.416C1315.67 159.385 1303.95 153.742 1289.95 153.742V161.742ZM1318.72 175.537C1326.39 184.748 1330.48 197.852 1330.48 215.359H1338.48C1338.48 196.669 1334.11 181.517 1324.86 170.416L1318.72 175.537ZM1330.48 215.359C1330.48 243.227 1320.73 268.278 1301.01 290.644L1307.02 295.934C1327.93 272.206 1338.48 245.304 1338.48 215.359H1330.48ZM1301.02 290.636C1281.19 313.012 1260.71 323.664 1239.56 323.664V331.664C1263.73 331.664 1286.22 319.4 1307.01 295.942L1301.02 290.636ZM1239.56 323.664C1226.6 323.664 1216.43 319.467 1208.68 311.248L1202.86 316.736C1212.3 326.747 1224.67 331.664 1239.56 331.664V323.664ZM1208.7 311.27C1201.1 303.078 1197.08 291.713 1197.08 276.688H1189.08C1189.08 293.172 1193.52 306.677 1202.84 316.714L1208.7 311.27ZM1197.08 276.688C1197.08 250.159 1204.64 225.674 1219.83 203.142L1213.2 198.67C1197.14 222.492 1189.08 248.528 1189.08 276.688H1197.08ZM1219.82 203.163C1238.9 175.241 1262.24 161.742 1289.95 161.742V153.742C1259.07 153.742 1233.46 169.02 1213.21 198.65L1219.82 203.163ZM1273.35 168.391C1260.19 168.391 1248.41 177.821 1237.78 194.025L1244.47 198.412C1254.68 182.846 1264.37 176.391 1273.35 176.391V168.391ZM1237.78 194.032C1226.91 210.68 1221.7 233.359 1221.7 261.648H1229.7C1229.7 234.209 1234.77 213.268 1244.47 198.406L1237.78 194.032ZM1221.7 261.648C1221.7 279.02 1224.96 293.228 1231.92 303.875L1238.61 299.5C1232.81 290.616 1229.7 278.131 1229.7 261.648H1221.7ZM1231.92 303.878C1237.26 312.041 1244.71 316.43 1254.02 316.43V308.43C1247.7 308.43 1242.64 305.657 1238.61 299.497L1231.92 303.878ZM1254.02 316.43C1266.86 316.43 1277.89 308.41 1287.23 294.329L1280.57 289.906C1271.94 302.908 1263.04 308.43 1254.02 308.43V316.43ZM1287.25 294.302C1299.22 275.933 1305.09 253.317 1305.09 226.688H1297.09C1297.09 252.141 1291.49 273.145 1280.55 289.933L1287.25 294.302ZM1305.09 226.688C1305.09 207.008 1302.44 192.084 1296.45 182.733L1289.71 187.048C1294.4 194.364 1297.09 207.304 1297.09 226.688H1305.09ZM1296.47 182.771C1290.73 173.587 1283.01 168.391 1273.35 168.391V176.391C1279.58 176.391 1285.01 179.527 1289.69 187.011L1296.47 182.771ZM1415.92 127.664L1414.49 123.929L1412.56 124.67L1412.05 126.673L1415.92 127.664ZM1446.98 115.75L1450.85 116.746L1452.78 109.239L1445.54 112.015L1446.98 115.75ZM1432.91 170.438L1429.04 169.441L1427.76 174.438H1432.91V170.438ZM1473.34 170.438L1477.25 171.317L1478.35 166.438H1473.34V170.438ZM1470.22 184.305V188.305H1473.42L1474.12 185.184L1470.22 184.305ZM1429.79 184.305V180.305H1426.7L1425.92 183.288L1429.79 184.305ZM1412.6 249.734L1416.46 250.783L1416.47 250.767L1416.47 250.751L1412.6 249.734ZM1406.74 298.367L1403.79 301.07L1403.85 301.134L1403.91 301.196L1406.74 298.367ZM1431.55 293.484L1433.55 296.947L1433.56 296.943L1433.56 296.939L1431.55 293.484ZM1462.8 271.805L1465.88 269.257L1463.35 266.192L1460.27 268.705L1462.8 271.805ZM1470.22 280.789L1472.63 283.984L1475.97 281.467L1473.3 278.242L1470.22 280.789ZM1378.23 322.195L1375.07 324.651L1375.1 324.687L1375.13 324.722L1378.23 322.195ZM1381.55 262.039L1377.67 261.037L1377.67 261.044L1381.55 262.039ZM1401.66 184.305L1405.54 185.307L1406.83 180.305H1401.66V184.305ZM1370.02 184.305L1366.15 183.322L1364.88 188.305H1370.02V184.305ZM1373.54 170.438V166.438H1370.43L1369.66 169.455L1373.54 170.438ZM1404.98 170.438V174.438H1408.09L1408.86 171.428L1404.98 170.438ZM1417.35 131.399L1448.41 119.485L1445.54 112.015L1414.49 123.929L1417.35 131.399ZM1443.1 114.754L1429.04 169.441L1436.79 171.434L1450.85 116.746L1443.1 114.754ZM1432.91 174.438H1473.34V166.438H1432.91V174.438ZM1469.44 169.558L1466.32 183.425L1474.12 185.184L1477.25 171.317L1469.44 169.558ZM1470.22 180.305H1429.79V188.305H1470.22V180.305ZM1425.92 183.288L1408.73 248.718L1416.47 250.751L1433.66 185.321L1425.92 183.288ZM1408.74 248.686C1403.41 268.306 1400.59 282.463 1400.59 290.75H1408.59C1408.59 283.672 1411.11 270.486 1416.46 250.783L1408.74 248.686ZM1400.59 290.75C1400.59 294.65 1401.36 298.415 1403.79 301.07L1409.69 295.664C1409.26 295.194 1408.59 293.882 1408.59 290.75H1400.59ZM1403.91 301.196C1406.36 303.641 1409.53 304.711 1412.99 304.711V296.711C1411.25 296.711 1410.25 296.218 1409.57 295.539L1403.91 301.196ZM1412.99 304.711C1415.72 304.711 1418.81 303.915 1422.11 302.632C1425.46 301.328 1429.28 299.417 1433.55 296.947L1429.54 290.021C1425.48 292.369 1422.05 294.071 1419.21 295.177C1416.32 296.302 1414.3 296.711 1412.99 296.711V304.711ZM1433.56 296.939C1444.68 290.453 1455.27 283.108 1465.33 274.904L1460.27 268.705C1450.53 276.648 1440.29 283.755 1429.53 290.029L1433.56 296.939ZM1459.71 274.352L1467.13 283.337L1473.3 278.242L1465.88 269.257L1459.71 274.352ZM1467.81 277.594C1439.22 299.132 1420.45 312.041 1411.2 316.664L1414.78 323.82C1424.81 318.808 1444.18 305.414 1472.63 283.984L1467.81 277.594ZM1411.2 316.664C1401.73 321.4 1394.66 323.469 1389.75 323.469V331.469C1396.56 331.469 1404.98 328.72 1414.78 323.82L1411.2 316.664ZM1389.75 323.469C1386.05 323.469 1383.38 322.187 1381.33 319.669L1375.13 324.722C1378.8 329.235 1383.82 331.469 1389.75 331.469V323.469ZM1381.38 319.74C1379.48 317.294 1378.12 312.679 1378.12 305.008H1370.12C1370.12 313.222 1371.5 320.066 1375.07 324.651L1381.38 319.74ZM1378.12 305.008C1378.12 296.168 1380.49 282.258 1385.42 263.034L1377.67 261.044C1372.71 280.362 1370.12 295.097 1370.12 305.008H1378.12ZM1385.42 263.041L1405.54 185.307L1397.79 183.303L1377.67 261.037L1385.42 263.041ZM1401.66 180.305H1370.02V188.305H1401.66V180.305ZM1373.9 185.288L1377.42 171.42L1369.66 169.455L1366.15 183.322L1373.9 185.288ZM1373.54 174.438H1404.98V166.438H1373.54V174.438ZM1408.86 171.428L1419.8 128.655L1412.05 126.673L1401.11 169.447L1408.86 171.428ZM1608.3 293.289L1611.29 295.942L1611.3 295.934L1608.3 293.289ZM1510.05 313.992L1507.12 316.714L1507.13 316.725L1507.14 316.736L1510.05 313.992ZM1520.8 200.906L1517.49 198.65L1517.49 198.66L1517.48 198.67L1520.8 200.906ZM1545.41 196.219L1542.06 194.025L1542.06 194.032L1545.41 196.219ZM1539.55 301.688L1536.2 303.875L1536.2 303.878L1539.55 301.688ZM1588.18 292.117L1591.51 294.329L1591.52 294.315L1591.53 294.302L1588.18 292.117ZM1597.36 184.891L1593.97 187.011L1593.98 187.03L1593.99 187.048L1597.36 184.891ZM1594.23 161.742C1605.76 161.742 1615.26 166.255 1623 175.537L1629.14 170.416C1619.95 159.385 1608.23 153.742 1594.23 153.742V161.742ZM1623 175.537C1630.67 184.748 1634.77 197.852 1634.77 215.359H1642.77C1642.77 196.669 1638.39 181.517 1629.14 170.416L1623 175.537ZM1634.77 215.359C1634.77 243.227 1625.01 268.278 1605.3 290.644L1611.3 295.934C1632.21 272.206 1642.77 245.304 1642.77 215.359H1634.77ZM1605.3 290.636C1585.47 313.012 1564.99 323.664 1543.84 323.664V331.664C1568.01 331.664 1590.5 319.4 1611.29 295.942L1605.3 290.636ZM1543.84 323.664C1530.88 323.664 1520.71 319.467 1512.97 311.248L1507.14 316.736C1516.58 326.747 1528.95 331.664 1543.84 331.664V323.664ZM1512.99 311.27C1505.38 303.078 1501.36 291.713 1501.36 276.688H1493.36C1493.36 293.172 1497.8 306.677 1507.12 316.714L1512.99 311.27ZM1501.36 276.688C1501.36 250.159 1508.92 225.674 1524.11 203.142L1517.48 198.67C1501.42 222.492 1493.36 248.528 1493.36 276.688H1501.36ZM1524.1 203.163C1543.18 175.241 1566.52 161.742 1594.23 161.742V153.742C1563.35 153.742 1537.74 169.02 1517.49 198.65L1524.1 203.163ZM1577.63 168.391C1564.47 168.391 1552.69 177.821 1542.06 194.025L1548.75 198.412C1558.96 182.846 1568.66 176.391 1577.63 176.391V168.391ZM1542.06 194.032C1531.19 210.68 1525.98 233.359 1525.98 261.648H1533.98C1533.98 234.209 1539.05 213.268 1548.76 198.406L1542.06 194.032ZM1525.98 261.648C1525.98 279.02 1529.24 293.228 1536.2 303.875L1542.9 299.5C1537.09 290.616 1533.98 278.131 1533.98 261.648H1525.98ZM1536.2 303.878C1541.54 312.041 1548.99 316.43 1558.3 316.43V308.43C1551.98 308.43 1546.93 305.657 1542.89 299.497L1536.2 303.878ZM1558.3 316.43C1571.14 316.43 1582.17 308.41 1591.51 294.329L1584.85 289.906C1576.22 302.908 1567.32 308.43 1558.3 308.43V316.43ZM1591.53 294.302C1603.5 275.933 1609.37 253.317 1609.37 226.688H1601.37C1601.37 252.141 1595.77 273.145 1584.83 289.933L1591.53 294.302ZM1609.37 226.688C1609.37 207.008 1606.72 192.084 1600.73 182.733L1593.99 187.048C1598.68 194.364 1601.37 207.304 1601.37 226.688H1609.37ZM1600.75 182.771C1595.01 173.587 1587.29 168.391 1577.63 168.391V176.391C1583.86 176.391 1589.29 179.527 1593.97 187.011L1600.75 182.771ZM1671.38 203.445L1668.51 206.232L1671.46 209.275L1674.33 206.146L1671.38 203.445ZM1664.73 196.609L1661.97 193.714L1659.05 196.5L1661.87 199.397L1664.73 196.609ZM1704.58 164.969L1702.72 161.429L1704.58 164.969ZM1737.78 169.266L1741.68 170.14L1741.69 170.127L1741.69 170.115L1737.78 169.266ZM1728.99 208.523L1725.09 207.65L1721.76 222.501L1731.96 211.204L1728.99 208.523ZM1778.99 167.312L1776.88 163.916L1776.86 163.927L1776.84 163.938L1778.99 167.312ZM1819.81 189.969L1823.7 190.925L1823.7 190.897L1823.71 190.868L1819.81 189.969ZM1803.41 245.242L1807.22 246.44L1807.22 246.433L1803.41 245.242ZM1813.17 295.047L1815.85 298.015L1815.86 298.007L1813.17 295.047ZM1830.36 280.594L1833.64 278.312L1831.24 274.855L1827.91 277.429L1830.36 280.594ZM1835.24 287.625L1838.21 290.304L1840.34 287.949L1838.53 285.343L1835.24 287.625ZM1797.94 319.656L1795.81 316.266L1795.8 316.273L1795.79 316.279L1797.94 319.656ZM1766.1 322L1769.3 319.6L1769.28 319.572L1769.26 319.544L1766.1 322ZM1783.68 218.094L1787.5 219.291L1787.52 219.214L1787.54 219.136L1783.68 218.094ZM1762.98 191.531L1765.18 194.87L1765.19 194.865L1765.2 194.859L1762.98 191.531ZM1732.31 220.047L1729.11 217.647L1729.11 217.656L1729.1 217.666L1732.31 220.047ZM1719.23 253.641L1723.12 254.545L1723.13 254.533L1719.23 253.641ZM1703.41 321.805V325.805H1706.58L1707.3 322.709L1703.41 321.805ZM1674.3 321.805L1670.45 320.726L1669.03 325.805H1674.3V321.805ZM1688.56 265.75L1684.67 264.838L1684.66 264.853L1684.66 264.867L1688.56 265.75ZM1705.95 191.531L1709.84 192.443L1709.85 192.412L1709.85 192.381L1705.95 191.531ZM1694.03 183.914L1696.24 187.251L1696.28 187.221L1696.33 187.191L1694.03 183.914ZM1674.24 200.658L1667.6 193.822L1661.87 199.397L1668.51 206.232L1674.24 200.658ZM1667.49 199.505C1684.11 183.665 1697.06 173.445 1706.44 168.508L1702.72 161.429C1692.3 166.91 1678.69 177.783 1661.97 193.714L1667.49 199.505ZM1706.44 168.508C1716.07 163.442 1723.86 161.156 1729.97 161.156V153.156C1722.01 153.156 1712.88 156.079 1702.72 161.429L1706.44 168.508ZM1729.97 161.156C1732.18 161.156 1733.37 161.633 1734.01 162.114L1738.81 155.714C1736.33 153.851 1733.23 153.156 1729.97 153.156V161.156ZM1734.01 162.114C1734.46 162.449 1734.64 162.693 1734.7 162.803C1734.75 162.887 1734.76 162.936 1734.76 163.016H1742.76C1742.76 159.882 1741.1 157.432 1738.81 155.714L1734.01 162.114ZM1734.76 163.016C1734.76 163.702 1734.53 165.393 1733.87 168.416L1741.69 170.115C1742.33 167.149 1742.76 164.673 1742.76 163.016H1734.76ZM1733.88 168.392L1725.09 207.65L1732.9 209.397L1741.68 170.14L1733.88 168.392ZM1731.96 211.204C1744.96 196.804 1761.33 183.291 1781.14 170.687L1776.84 163.938C1756.55 176.855 1739.59 190.815 1726.02 205.843L1731.96 211.204ZM1781.1 170.709C1791.59 164.185 1799.6 161.352 1805.36 161.352V153.352C1797.32 153.352 1787.74 157.159 1776.88 163.916L1781.1 170.709ZM1805.36 161.352C1809.5 161.352 1812.3 162.635 1814.27 164.877L1820.28 159.592C1816.52 155.323 1811.37 153.352 1805.36 153.352V161.352ZM1814.27 164.877C1816.27 167.15 1817.57 170.752 1817.57 176.297H1825.57C1825.57 169.602 1824 163.829 1820.28 159.592L1814.27 164.877ZM1817.57 176.297C1817.57 179.958 1817.04 184.206 1815.91 189.069L1823.71 190.868C1824.93 185.576 1825.57 180.709 1825.57 176.297H1817.57ZM1815.93 189.013C1813.88 197.334 1808.45 215.635 1799.59 244.051L1807.22 246.433C1816.07 218.078 1821.58 199.53 1823.7 190.925L1815.93 189.013ZM1799.59 244.045C1795.41 257.375 1792.25 268.527 1790.14 277.477C1788.04 286.35 1786.91 293.32 1786.91 298.172H1794.91C1794.91 294.3 1795.85 288.086 1797.92 279.316C1799.98 270.623 1803.07 259.672 1807.22 246.44L1799.59 244.045ZM1786.91 298.172C1786.91 301.045 1787.31 303.866 1788.65 306.089L1795.51 301.973C1795.28 301.593 1794.91 300.507 1794.91 298.172H1786.91ZM1788.65 306.089C1790.1 308.508 1792.46 309.984 1795.4 309.984V301.984C1795.34 301.984 1795.34 301.978 1795.38 301.988C1795.4 301.992 1795.42 301.999 1795.44 302.01C1795.47 302.021 1795.5 302.034 1795.52 302.048C1795.55 302.063 1795.57 302.077 1795.58 302.088C1795.6 302.1 1795.6 302.106 1795.6 302.106C1795.6 302.104 1795.56 302.068 1795.51 301.973L1788.65 306.089ZM1795.4 309.984C1798.42 309.984 1801.63 308.589 1804.77 306.657C1808.02 304.655 1811.72 301.744 1815.85 298.015L1810.49 292.078C1806.55 295.641 1803.25 298.199 1800.58 299.843C1797.79 301.557 1796.15 301.984 1795.4 301.984V309.984ZM1815.86 298.007C1821.52 292.865 1827.17 288.117 1832.81 283.759L1827.91 277.429C1822.09 281.925 1816.28 286.812 1810.48 292.087L1815.86 298.007ZM1827.07 282.875L1831.96 289.907L1838.53 285.343L1833.64 278.312L1827.07 282.875ZM1832.27 284.946C1820.5 297.999 1808.34 308.421 1795.81 316.266L1800.06 323.046C1813.31 314.746 1826.03 303.813 1838.21 290.304L1832.27 284.946ZM1795.79 316.279C1787.78 321.368 1781.8 323.469 1777.62 323.469V331.469C1784.12 331.469 1791.69 328.361 1800.08 323.033L1795.79 316.279ZM1777.62 323.469C1773.81 323.469 1771.21 322.143 1769.3 319.6L1762.9 324.4C1766.46 329.149 1771.54 331.469 1777.62 331.469V323.469ZM1769.26 319.544C1767.36 317.107 1766 312.437 1766 304.617H1758C1758 312.943 1759.37 319.862 1762.94 324.456L1769.26 319.544ZM1766 304.617C1766 299.378 1767.68 289.714 1771.3 275.267C1774.89 260.954 1780.28 242.303 1787.5 219.291L1779.86 216.897C1772.63 239.979 1767.18 258.795 1763.54 273.323C1759.93 287.717 1758 298.268 1758 304.617H1766ZM1787.54 219.136C1789.76 210.914 1791.43 204.367 1792.56 199.513C1793.63 194.863 1794.32 191.301 1794.32 189.383H1786.32C1786.32 190.199 1785.9 192.789 1784.76 197.71C1783.67 202.426 1782.03 208.867 1779.82 217.052L1787.54 219.136ZM1794.32 189.383C1794.32 186.544 1793.44 183.751 1791.08 181.776C1788.86 179.915 1785.96 179.328 1783.09 179.328V187.328C1785.04 187.328 1785.76 187.751 1785.94 187.908C1786 187.951 1786.32 188.185 1786.32 189.383H1794.32ZM1783.09 179.328C1776.66 179.328 1769.12 182.628 1760.76 188.203L1765.2 194.859C1773.24 189.497 1779.11 187.328 1783.09 187.328V179.328ZM1760.77 188.192C1748.18 196.5 1737.61 206.315 1729.11 217.647L1735.51 222.447C1743.42 211.903 1753.3 202.708 1765.18 194.87L1760.77 188.192ZM1729.1 217.666C1723.4 225.365 1718.88 237.208 1715.33 252.748L1723.13 254.533C1726.6 239.344 1730.81 228.791 1735.53 222.428L1729.1 217.666ZM1715.33 252.736L1699.51 320.9L1707.3 322.709L1723.12 254.545L1715.33 252.736ZM1703.41 317.805H1674.3V325.805H1703.41V317.805ZM1678.16 322.883C1683.64 303.294 1688.41 284.544 1692.46 266.633L1684.66 264.867C1680.64 282.633 1675.91 301.253 1670.45 320.726L1678.16 322.883ZM1692.46 266.662L1709.84 192.443L1702.05 190.619L1684.67 264.838L1692.46 266.662ZM1709.85 192.381C1710.51 189.38 1710.92 186.859 1710.92 185.086H1702.92C1702.92 185.917 1702.69 187.693 1702.04 190.682L1709.85 192.381ZM1710.92 185.086C1710.92 182.951 1710.55 180.623 1709.16 178.75C1707.61 176.652 1705.31 175.812 1703.02 175.812V183.812C1703.22 183.812 1703.21 183.847 1703.08 183.79C1702.93 183.723 1702.8 183.61 1702.73 183.512C1702.68 183.437 1702.73 183.472 1702.79 183.738C1702.86 184.007 1702.92 184.441 1702.92 185.086H1710.92ZM1703.02 175.812C1701.16 175.812 1699.29 176.401 1697.55 177.199C1695.75 178.018 1693.81 179.186 1691.74 180.637L1696.33 187.191C1698.16 185.907 1699.67 185.025 1700.87 184.477C1702.11 183.908 1702.78 183.812 1703.02 183.812V175.812ZM1691.82 180.578C1683.46 186.11 1675.66 192.839 1668.42 200.745L1674.33 206.146C1681.15 198.687 1688.46 192.395 1696.24 187.251L1691.82 180.578Z" fill="#211D1C" mask="url(#path-4-outside-2_2238_13377)"/>
</svg>
