<svg width="152" height="152" viewBox="0 0 152 152" fill="none" xmlns="http://www.w3.org/2000/svg">
<path d="M10 75.6613C10 39.9498 38.9498 11 74.6613 11H78.3387C114.05 11 143 39.9498 143 75.6613V75.6613C143 111.373 114.05 140.323 78.3387 140.323H74.6613C38.9498 140.323 10 111.373 10 75.6613V75.6613Z" fill="#FF5800"/>
<path d="M66.6764 67.1649L58.656 98.9473C60.5713 99.2266 62.1076 99.3663 63.2647 99.3663C65.0205 99.3663 67.1951 99.067 69.7888 98.4685L69.1903 101.401C66.5168 101.96 64.4419 102.239 62.9655 102.239C61.4093 102.239 59.1149 102.1 56.0823 101.82C53.4088 101.541 51.1942 101.401 49.4385 101.401C46.2463 101.401 42.5553 101.86 38.3655 102.778L39.2634 99.4262C43.6526 98.3089 46.5057 97.2116 47.8225 96.1342C49.8176 94.4184 51.3538 91.4057 52.4312 87.0963L60.8107 53.638C61.8482 49.3684 62.3669 46.8545 62.3669 46.0964C62.3669 45.3781 62.1076 44.8395 61.5888 44.4803C61.11 44.1212 60.1324 43.9616 58.656 44.0015L59.4341 41.1285C63.4643 41.0886 68.2925 40.3504 73.9187 38.9139C73.4399 40.4302 72.8214 42.6648 72.0633 45.6176L67.5742 63.2744C69.4895 63.6735 71.1056 63.873 72.4224 63.873C77.4102 63.873 81.6798 62.1372 85.2311 58.6657C88.7824 55.1543 90.5581 51.0044 90.5581 46.2161C90.5581 42.5052 89.1216 39.4526 86.2486 37.0585C83.4155 34.6643 79.545 33.4672 74.637 33.4672C68.3723 33.4672 62.2472 34.9835 56.2618 38.0161C50.2765 41.0487 45.7874 44.8195 42.7947 49.3285C39.802 53.7976 38.3057 58.4861 38.3057 63.3942C38.3057 67.1051 39.8419 70.2973 42.9144 72.9708C44.4706 74.2875 45.4283 75.2452 45.7874 75.8437C46.1465 76.4423 46.3261 77.0807 46.3261 77.7591C46.3261 78.597 46.0069 79.3352 45.3684 79.9737C44.7699 80.5722 44.0317 80.8715 43.1539 80.8715C40.9991 80.8715 39.0838 79.6145 37.4079 77.1007C35.2532 73.8287 34.1758 69.7985 34.1758 65.0102C34.1758 58.8652 35.8716 53.1392 39.2634 47.8322C42.6551 42.5251 47.7826 38.1358 54.6458 34.6643C61.5489 31.1928 68.8112 29.457 76.4326 29.457C83.5352 29.457 89.381 30.7938 93.9698 33.4672C98.5586 36.1407 100.853 40.0911 100.853 45.3183C100.853 50.2263 98.7381 54.7952 94.5084 59.0248C90.3187 63.2545 84.5328 65.9679 77.1508 67.1649C78.9864 70.836 80.1635 73.3099 80.6822 74.5868C81.5202 76.7416 82.797 80.3727 84.5129 85.4802C88.543 97.4909 92.7128 105.95 97.0223 110.858C100.215 114.449 103.666 116.245 107.377 116.245C111.208 116.245 113.662 114.509 114.739 111.038C115.377 108.843 115.976 107.486 116.535 106.968C117.293 106.249 118.151 105.89 119.108 105.89C120.066 105.89 120.864 106.23 121.503 106.908C122.181 107.586 122.52 108.404 122.52 109.362C122.52 111.836 121.163 114.19 118.45 116.425C115.737 118.659 112.245 119.776 107.976 119.776C104.105 119.776 100.394 118.839 96.8427 116.963C93.3313 115.088 89.8997 112.015 86.5479 107.746C83.236 103.476 80.343 98.3488 77.8691 92.3634C76.6321 89.3707 74.8165 83.8841 72.4224 75.9036C70.9859 71.0355 70.0881 68.1226 69.729 67.1649L68.2326 67.0452C67.8735 67.0452 67.3548 67.0851 66.6764 67.1649Z" fill="white"/>
<path fill-rule="evenodd" clip-rule="evenodd" d="M71.3723 96.8446L70.2313 102.436L69.4422 102.6C66.7432 103.164 64.5704 103.464 62.9667 103.464C61.3525 103.464 59.0129 103.32 55.9711 103.04L55.9636 103.04L55.9561 103.039C53.3053 102.762 51.1369 102.626 49.4397 102.626C46.3599 102.626 42.76 103.07 38.629 103.975L36.6616 104.406L38.2663 98.4146L38.9622 98.2375C41.13 97.6857 42.8905 97.1456 44.2563 96.6204C45.6315 96.0914 46.5269 95.6069 47.0361 95.1939C48.742 93.7202 50.1917 91.0042 51.2432 86.7982L59.6208 53.3478C59.6211 53.3463 59.6215 53.3448 59.6219 53.3434C60.1387 51.2163 60.5236 49.5377 60.7786 48.3019C61.0445 47.013 61.1423 46.3252 61.1423 46.0956C61.1423 45.7151 61.0305 45.5832 60.8923 45.4874L60.8732 45.4742L60.8546 45.4603C60.857 45.4621 60.8233 45.437 60.7261 45.4024C60.6297 45.3681 60.491 45.3315 60.3002 45.3003C59.9149 45.2374 59.385 45.2073 58.6903 45.2261L57.0433 45.2706L58.4948 39.9112L59.4232 39.902C63.3225 39.8634 68.0477 39.1473 73.6167 37.7255L75.7527 37.1801L75.0888 39.2823C74.6204 40.7657 74.0087 42.9736 73.2523 45.9194C73.2521 45.9202 73.2519 45.9209 73.2517 45.9217L69.0842 62.3139C70.3925 62.5389 71.5028 62.6464 72.4236 62.6464C77.0915 62.6464 81.0523 61.0357 84.3729 57.7908C87.7009 54.4992 89.3335 50.6596 89.3335 46.2153C89.3335 42.8715 88.0611 40.1628 85.4651 37.9994L85.4618 37.9967L85.4586 37.994C82.9097 35.8399 79.3512 34.6923 74.6382 34.6923C68.5795 34.6923 62.6432 36.1569 56.8171 39.1088C50.9759 42.0684 46.6677 45.7109 43.8173 50.0056L43.8159 50.0077L43.8145 50.0098C40.9434 54.2973 39.5327 58.7514 39.5327 63.3934C39.5327 66.7101 40.884 69.5749 43.7141 72.0399C44.5036 72.7081 45.1577 73.2989 45.6678 73.8091C46.1644 74.3056 46.5806 74.7804 46.8397 75.2123C47.3097 75.9956 47.5531 76.8511 47.5531 77.7583C47.5531 78.9482 47.0851 79.991 46.2364 80.8397C45.3987 81.6775 44.3445 82.0965 43.1551 82.0965C40.4389 82.0965 38.193 80.4856 36.3892 77.7799L36.3872 77.777L36.3853 77.7741C34.0721 74.2614 32.9512 69.9837 32.9512 65.0095C32.9512 58.6244 34.7173 52.6703 38.2317 47.1713C41.7652 41.6424 47.0779 37.1184 54.0937 33.5697L54.0963 33.5684C61.1678 30.0122 68.6184 28.2305 76.4338 28.2305C83.6825 28.2305 89.759 29.5939 94.588 32.4073C99.5463 35.296 102.08 39.6455 102.08 45.3175C102.08 50.6186 99.783 55.4837 95.378 59.8892C91.2852 64.0199 85.7902 66.7297 78.9775 68.081C80.4019 70.9584 81.3546 72.9815 81.8191 74.1247L81.8225 74.1332L81.8259 74.1418C82.6752 76.3257 83.96 79.9808 85.676 85.0891L85.6762 85.0895C89.6933 97.0613 93.8002 105.327 97.9423 110.046C100.974 113.456 104.115 115.019 107.378 115.019C109.11 115.019 110.414 114.628 111.384 113.942C112.345 113.262 113.09 112.212 113.566 110.684C113.892 109.564 114.218 108.623 114.546 107.879C114.86 107.167 115.23 106.509 115.697 106.073C116.66 105.163 117.81 104.664 119.11 104.664C120.388 104.664 121.508 105.13 122.384 106.053C123.283 106.959 123.747 108.084 123.747 109.361C123.747 112.336 122.103 115.005 119.23 117.37C116.253 119.822 112.467 121.002 107.977 121.002C103.899 121.002 99.9924 120.011 96.2715 118.047L96.269 118.045L96.2665 118.044C92.561 116.065 89.0058 112.86 85.5849 108.502L85.5827 108.499L85.5805 108.496C82.1897 104.125 79.2452 98.8982 76.7374 92.8309C75.474 89.7741 73.6427 84.2326 71.2495 76.2551L71.2487 76.2524L71.2479 76.2498C70.0789 72.2883 69.2775 69.6593 68.8347 68.3223L68.1882 68.2706C68.0488 68.2721 67.8722 68.2808 67.6558 68.2977L60.1819 97.9144C61.439 98.0667 62.4639 98.1397 63.2659 98.1397C64.8944 98.1397 66.9698 97.8605 69.5144 97.2733L71.3723 96.8446ZM59.8796 99.1123C59.4909 99.064 59.0834 99.0087 58.6572 98.9466L66.6776 67.1642C67.356 67.0844 67.8747 67.0445 68.2338 67.0445L69.7302 67.1642C70.0893 68.1219 70.9871 71.0347 72.4236 75.9028C74.8177 83.8834 76.6333 89.37 77.8703 92.3627C80.3442 98.348 83.2372 103.476 86.5491 107.745C89.9009 112.015 93.3325 115.087 96.8439 116.963C100.395 118.838 104.106 119.776 107.977 119.776C112.246 119.776 115.738 118.658 118.451 116.424C121.165 114.189 122.521 111.835 122.521 109.361C122.521 108.403 122.182 107.585 121.504 106.907C120.865 106.229 120.067 105.89 119.11 105.89C118.152 105.89 117.294 106.249 116.536 106.967C115.977 107.486 115.379 108.842 114.74 111.037C113.663 114.509 111.209 116.244 107.378 116.244C103.667 116.244 100.216 114.449 97.0235 110.857C92.714 105.949 88.5442 97.4901 84.5141 85.4795C82.7982 80.3719 81.5214 76.7408 80.6834 74.5861C80.2207 73.4471 79.2341 71.3557 77.7237 68.3118C77.5408 67.9432 77.3503 67.5607 77.152 67.1642C77.5771 67.0953 77.9969 67.0213 78.4114 66.9423C85.1951 65.6496 90.5611 63.0102 94.5096 59.0241C98.7393 54.7944 100.854 50.2256 100.854 45.3175C100.854 40.0903 98.5597 36.14 93.971 33.4665C89.3822 30.793 83.5364 29.4563 76.4338 29.4563C68.8124 29.4563 61.5501 31.192 54.647 34.6636C47.7837 38.1351 42.6563 42.5244 39.2646 47.8314C35.8728 53.1384 34.177 58.8645 34.177 65.0095C34.177 69.7978 35.2543 73.8279 37.4091 77.0999C39.085 79.6138 41.0003 80.8707 43.1551 80.8707C44.0329 80.8707 44.7711 80.5714 45.3696 79.9729C46.0081 79.3345 46.3273 78.5963 46.3273 77.7583C46.3273 77.08 46.1477 76.4415 45.7886 75.843C45.4295 75.2445 44.4718 74.2868 42.9156 72.97C39.8431 70.2965 38.3069 67.1043 38.3069 63.3934C38.3069 58.4854 39.8032 53.7968 42.7959 49.3277C45.7886 44.8188 50.2777 41.048 56.263 38.0154C62.2484 34.9828 68.3735 33.4665 74.6382 33.4665C79.5462 33.4665 83.4167 34.6636 86.2498 37.0577C89.1228 39.4519 90.5593 42.5044 90.5593 46.2153C90.5593 51.0037 88.7836 55.1535 85.2323 58.6649C81.681 62.1365 77.4114 63.8722 72.4236 63.8722C71.3928 63.8722 70.1788 63.75 68.7813 63.5055C68.3935 63.4376 67.9915 63.3604 67.5754 63.2737L72.0645 45.6168C72.6202 43.4523 73.1009 41.6738 73.5066 40.2812C73.6543 39.774 73.7921 39.318 73.9199 38.9132C73.4515 39.0328 72.9886 39.1475 72.5312 39.2575C67.4952 40.4678 63.1299 41.0912 59.4353 41.1278L58.6572 44.0008C59.1295 43.988 59.5507 43.9956 59.9209 44.0237C60.708 44.0834 61.2644 44.2353 61.59 44.4796C62.1088 44.8387 62.3681 45.3774 62.3681 46.0956C62.3681 46.8538 61.8494 49.3676 60.8119 53.6372L52.4324 87.0955C51.355 91.405 49.8188 94.4176 47.8237 96.1334C46.5069 97.2108 43.6538 98.3081 39.2646 99.4254L38.3667 102.777C38.8208 102.678 39.269 102.584 39.7114 102.495C43.3507 101.765 46.5935 101.401 49.4397 101.401C51.1954 101.401 53.41 101.54 56.0835 101.82C59.1161 102.099 61.4105 102.239 62.9667 102.239C64.4431 102.239 66.518 101.959 69.1915 101.401L69.79 98.4677C69.3411 98.5713 68.9048 98.666 68.481 98.7516C66.4561 99.1609 64.7178 99.3656 63.2659 99.3656C62.3663 99.3656 61.2375 99.2811 59.8796 99.1123Z" fill="white"/>
</svg>
